<?xml version="1.0" encoding="UTF-8"?>
<svg width="24px" height="24px" viewBox="0 0 24 24" version="1.1" xmlns="http://www.w3.org/2000/svg" xmlns:xlink="http://www.w3.org/1999/xlink">
    <!-- Generator: sketchtool 64 (101010) - https://sketch.com -->
    <title>81C145CC-1FFC-4A7B-9D59-09C31D95C0DE</title>
    <desc>Created with sketchtool.</desc>
    <g id="Dashboard---ClientSide" stroke="none" stroke-width="1" fill="none" fill-rule="evenodd">
        <g id="ClientSide---ScheduleVisitConfirm" transform="translate(-745.000000, -436.000000)" fill="#07A39D" fill-rule="nonzero">
            <g id="icon_calendar-tealDark" transform="translate(745.000000, 436.000000)">
                <path d="M18.4,-9.41469125e-14 C18.8418278,-9.41469125e-14 19.2,0.3581722 19.2,0.8 L19.2,0.8 L19.2,2.399 L20.8,2.4 C22.5673112,2.4 24,3.8326888 24,5.6 L24,20 C24,21.7673112 22.5673112,23.2 20.8,23.2 L3.2,23.2 C1.4326888,23.2 0,21.7673112 0,20 L0,5.6 C0,3.8326888 1.4326888,2.4 3.2,2.4 L4.799,2.399 L4.8,0.8 C4.8,0.392158954 5.10518815,0.055598419 5.4996497,0.00623313573 L5.6,-9.41469125e-14 C6.0418278,-9.41469125e-14 6.4,0.3581722 6.4,0.8 L6.4,0.8 L6.399,2.399 L17.6,2.399 L17.6,0.8 C17.6,0.392158954 17.9051881,0.055598419 18.2996497,0.00623313573 Z M22.4,8.8 L1.599,8.799 L1.6,20 C1.6,20.8836556 2.3163444,21.6 3.2,21.6 L20.8,21.6 C21.6836556,21.6 22.4,20.8836556 22.4,20 L22.4,8.8 Z M5.6,17.68 C6.00500882,17.68 6.33972369,17.898883 6.39269694,18.1828689 L6.4,18.2618182 L6.4,18.6981818 C6.4,19.0195111 6.0418278,19.28 5.6,19.28 C5.19499118,19.28 4.86027631,19.061117 4.80730306,18.7771311 L4.8,18.6981818 L4.8,18.2618182 C4.8,17.9404889 5.1581722,17.68 5.6,17.68 Z M8.8,17.68 C9.20500882,17.68 9.53972369,17.898883 9.59269694,18.1828689 L9.6,18.2618182 L9.6,18.6981818 C9.6,19.0195111 9.2418278,19.28 8.8,19.28 C8.39499118,19.28 8.06027631,19.061117 8.00730306,18.7771311 L8,18.6981818 L8,18.2618182 C8,17.9404889 8.3581722,17.68 8.8,17.68 Z M12,17.68 C12.4050088,17.68 12.7397237,17.898883 12.7926969,18.1828689 L12.8,18.2618182 L12.8,18.6981818 C12.8,19.0195111 12.4418278,19.28 12,19.28 C11.5949912,19.28 11.2602763,19.061117 11.2073031,18.7771311 L11.2,18.6981818 L11.2,18.2618182 C11.2,17.9404889 11.5581722,17.68 12,17.68 Z M15.2,17.68 C15.6050088,17.68 15.9397237,17.898883 15.9926969,18.1828689 L16,18.2618182 L16,18.6981818 C16,19.0195111 15.6418278,19.28 15.2,19.28 C14.7949912,19.28 14.4602763,19.061117 14.4073031,18.7771311 L14.4,18.6981818 L14.4,18.2618182 C14.4,17.9404889 14.7581722,17.68 15.2,17.68 Z M18.4,17.68 C18.8050088,17.68 19.1397237,17.898883 19.1926969,18.1828689 L19.2,18.2618182 L19.2,18.6981818 C19.2,19.0195111 18.8418278,19.28 18.4,19.28 C17.9949912,19.28 17.6602763,19.061117 17.6073031,18.7771311 L17.6,18.6981818 L17.6,18.2618182 C17.6,17.9404889 17.9581722,17.68 18.4,17.68 Z M5.6,14.48 C6.00500882,14.48 6.33972369,14.698883 6.39269694,14.9828689 L6.4,15.0618182 L6.4,15.4981818 C6.4,15.8195111 6.0418278,16.08 5.6,16.08 C5.19499118,16.08 4.86027631,15.861117 4.80730306,15.5771311 L4.8,15.4981818 L4.8,15.0618182 C4.8,14.7404889 5.1581722,14.48 5.6,14.48 Z M8.8,14.48 C9.20500882,14.48 9.53972369,14.698883 9.59269694,14.9828689 L9.6,15.0618182 L9.6,15.4981818 C9.6,15.8195111 9.2418278,16.08 8.8,16.08 C8.39499118,16.08 8.06027631,15.861117 8.00730306,15.5771311 L8,15.4981818 L8,15.0618182 C8,14.7404889 8.3581722,14.48 8.8,14.48 Z M12,14.48 C12.4050088,14.48 12.7397237,14.698883 12.7926969,14.9828689 L12.8,15.0618182 L12.8,15.4981818 C12.8,15.8195111 12.4418278,16.08 12,16.08 C11.5949912,16.08 11.2602763,15.861117 11.2073031,15.5771311 L11.2,15.4981818 L11.2,15.0618182 C11.2,14.7404889 11.5581722,14.48 12,14.48 Z M18.4,14.48 C18.8050088,14.48 19.1397237,14.698883 19.1926969,14.9828689 L19.2,15.0618182 L19.2,15.4981818 C19.2,15.8195111 18.8418278,16.08 18.4,16.08 C17.9949912,16.08 17.6602763,15.861117 17.6073031,15.5771311 L17.6,15.4981818 L17.6,15.0618182 C17.6,14.7404889 17.9581722,14.48 18.4,14.48 Z M5.6,11.28 C6.00500882,11.28 6.33972369,11.498883 6.39269694,11.7828689 L6.4,11.8618182 L6.4,12.2981818 C6.4,12.6195111 6.0418278,12.88 5.6,12.88 C5.19499118,12.88 4.86027631,12.661117 4.80730306,12.3771311 L4.8,12.2981818 L4.8,11.8618182 C4.8,11.5404889 5.1581722,11.28 5.6,11.28 Z M8.8,11.28 C9.20500882,11.28 9.53972369,11.498883 9.59269694,11.7828689 L9.6,11.8618182 L9.6,12.2981818 C9.6,12.6195111 9.2418278,12.88 8.8,12.88 C8.39499118,12.88 8.06027631,12.661117 8.00730306,12.3771311 L8,12.2981818 L8,11.8618182 C8,11.5404889 8.3581722,11.28 8.8,11.28 Z M12,11.28 C12.4050088,11.28 12.7397237,11.498883 12.7926969,11.7828689 L12.8,11.8618182 L12.8,12.2981818 C12.8,12.6195111 12.4418278,12.88 12,12.88 C11.5949912,12.88 11.2602763,12.661117 11.2073031,12.3771311 L11.2,12.2981818 L11.2,11.8618182 C11.2,11.5404889 11.5581722,11.28 12,11.28 Z M15.2,11.28 C15.6050088,11.28 15.9397237,11.498883 15.9926969,11.7828689 L16,11.8618182 L16,12.2981818 C16,12.6195111 15.6418278,12.88 15.2,12.88 C14.7949912,12.88 14.4602763,12.661117 14.4073031,12.3771311 L14.4,12.2981818 L14.4,11.8618182 C14.4,11.5404889 14.7581722,11.28 15.2,11.28 Z M18.4,11.28 C18.8050088,11.28 19.1397237,11.498883 19.1926969,11.7828689 L19.2,11.8618182 L19.2,12.2981818 C19.2,12.6195111 18.8418278,12.88 18.4,12.88 C17.9949912,12.88 17.6602763,12.661117 17.6073031,12.3771311 L17.6,12.2981818 L17.6,11.8618182 C17.6,11.5404889 17.9581722,11.28 18.4,11.28 Z M5.58575501,3.99987572 L3.2,4 C2.3163444,4 1.6,4.7163444 1.6,5.6 L1.599,7.199 L22.4,7.2 L22.4,7.2 L22.4,5.6 C22.4,4.7163444 21.6836556,4 20.8,4 L18.414,3.999 L18.4,4 C18.395289,4 18.3905874,3.99995928 18.3858958,3.99987817 L5.613,3.999 L5.6,4 C5.59524185,4 5.59049341,3.99995846 5.58575501,3.99987572 Z" id="Mask"></path>
            </g>
        </g>
    </g>
</svg>