<?xml version="1.0" encoding="UTF-8"?>
<svg width="16px" height="18px" viewBox="0 0 16 18" version="1.1" xmlns="http://www.w3.org/2000/svg" xmlns:xlink="http://www.w3.org/1999/xlink">
    <!-- Generator: sketchtool 64 (101010) - https://sketch.com -->
    <title>84BF8388-4337-4D2B-8272-BAB0A01CC10D</title>
    <desc>Created with sketchtool.</desc>
    <defs>
        <path d="M14.6796539,4.61346156 L10.3889567,4.63423079 L12.8341845,8.90515387 C12.8295804,8.90084617 12.826511,8.89576925 12.8208327,8.89223079 L0.993867755,4.67961541 L10.3889567,4.63423079 L8.24452898,0.889000021 L14.6796539,4.61346156 Z M8.08292571,17.0246923 C7.97273469,17.0883846 7.84182531,17.0997693 7.72242612,17.0625385 L4.60684408,11.7363846 L0.794357551,12.9982308 C0.755222857,12.9302308 0.733276735,12.8520769 0.733276735,12.771 L0.733276735,5.11438464 L4.60684408,11.7363846 L12.8162286,9.01946156 C12.8222139,9.01653848 12.8245159,9.01223079 12.8292735,9.00884617 L8.15137306,16.985 L8.08292571,17.0246923 Z M14.9803004,12.6534616 L12.861809,8.95346156 L12.8611951,8.95453848 C12.8610416,8.95269233 12.8598139,8.95115387 12.8596604,8.94961541 L12.861809,8.95346156 L14.9803004,5.34130771 L14.9803004,12.6534616 Z M15.1205714,4.01961541 L8.44956408,0.158846175 C8.08461388,-0.0528461329 7.62957714,-0.052999979 7.26401306,0.158692329 L0.592852245,4.01961541 C0.227288163,4.23130771 0,4.62561541 0,5.04900002 L0,12.771 C0,13.1945385 0.227288163,13.5888462 0.592852245,13.8005385 L7.26401306,17.6616154 C7.44694857,17.7671539 7.65167673,17.8202308 7.85655837,17.8202308 C8.06174694,17.8202308 8.26662857,17.7671539 8.44956408,17.6616154 L15.1205714,13.8005385 C15.486289,13.5888462 15.7135771,13.1945385 15.7135771,12.771 L15.7135771,5.04900002 C15.7135771,4.62561541 15.486289,4.23130771 15.1205714,4.01961541 L15.1205714,4.01961541 Z" id="path-1"></path>
    </defs>
    <g id="Dashboard---ClientSide" stroke="none" stroke-width="1" fill="none" fill-rule="evenodd">
        <g id="ClientSide---Dashboard---MyProjects" transform="translate(-137.000000, -866.000000)">
            <g id="footer_v2" transform="translate(0.000000, 850.000000)">
                <g id="Group" transform="translate(137.000000, 16.000000)">
                    <g id="JHG_symbol">
                        <g id="dark-bg" transform="translate(0.000000, -0.000000)">
                            <mask id="mask-2" fill="white">
                                <use xlink:href="#path-1"></use>
                            </mask>
                            <use id="Mask" fill="#FFFFFF" xlink:href="#path-1"></use>
                            <g mask="url(#mask-2)" fill="#354A5E" id="Rectangle">
                                <g transform="translate(-0.640000, 0.000000)">
                                    <rect x="0" y="0" width="16.64" height="18"></rect>
                                </g>
                            </g>
                        </g>
                    </g>
                </g>
            </g>
        </g>
    </g>
</svg>