<?xml version="1.0" encoding="UTF-8"?>
<svg width="24px" height="24px" viewBox="0 0 24 24" version="1.1" xmlns="http://www.w3.org/2000/svg" xmlns:xlink="http://www.w3.org/1999/xlink">
    <!-- Generator: Sketch 64 (93537) - https://sketch.com -->
    <title>icon-phoneCall</title>
    <desc>Created with Sketch.</desc>
    <g id="Symbols" stroke="none" stroke-width="1" fill="none" fill-rule="evenodd">
        <g id="icon-phoneCall" fill="#07A39D" fill-rule="nonzero">
            <path d="M3.31417383,1.8879375 C4.13654883,1.06560938 5.47464258,1.06560938 6.29706446,1.8879375 L6.29706446,1.8879375 L9.27995508,4.87082813 C10.102377,5.69320313 10.102377,7.03134375 9.27995508,7.85371875 L9.27995508,7.85371875 L7.92409571,9.20957813 C7.29953321,9.83409375 7.29962696,10.8448594 7.92409571,11.4693281 L7.92409571,11.4693281 L12.6393926,16.0731094 L12.6393926,16.0731094 C13.264752,16.6985156 14.2755176,16.6984219 14.8999395,16.0739531 L14.8999395,16.0739531 L16.2558457,14.7180938 C17.0802363,13.8936563 18.4143926,13.89375 19.2387363,14.7180938 C19.2415488,14.7209063 19.2443613,14.7237656 19.247127,14.726625 L19.247127,14.726625 L22.2169863,17.7995156 C23.0345801,18.6222656 23.0329863,19.9567969 22.212252,20.777625 C22.1965488,20.7933281 21.1427988,21.7639219 21.1264863,21.7789688 C18.1489395,24.7452188 13.346127,24.7341563 10.3804863,21.7685156 L10.3804863,21.7685156 L2.23000196,13.7295469 C-0.743794916,10.75575 -0.742716791,5.94482813 2.22953321,2.972625 L2.22953321,2.972625 L2.60960861,2.59252348 C2.7726329,2.42949842 2.97192169,2.23020331 3.11689595,2.08522358 Z M2.83581446,4.39242188 C0.818080084,6.81614063 0.927017584,10.4379844 3.22379883,12.7348125 L3.22379883,12.7348125 L11.3742832,20.7737813 C13.6692363,23.0686875 17.2692832,23.1952031 19.7169082,21.162 L19.7169082,21.162 L15.754002,17.1990938 C14.5720957,18.2417813 12.7740176,18.1954219 11.6468145,17.0691094 L11.6468145,17.0691094 L6.93067383,12.4644844 C5.80417383,11.3379844 5.76100196,9.53414063 6.79904883,8.35565625 L6.79904883,8.35565625 Z M18.2409082,15.7088438 C17.9660801,15.4376719 17.524002,15.4385156 17.2501113,15.7123594 L17.2501113,15.7123594 L16.753002,16.2094688 L20.7537832,20.21025 L21.2262832,19.7748281 C21.4920645,19.5000938 21.4892988,19.0603594 21.2179395,18.7889531 C21.2123613,18.7834219 18.2463926,15.7145156 18.2409082,15.7088438 Z M12.0477363,-2.93098879e-14 C18.6542988,-2.93098879e-14 23.9999707,5.3461875 23.9999707,11.9522344 C23.9999707,12.3405469 23.6851582,12.6553125 23.2968926,12.6553125 C22.908627,12.6553125 22.5938145,12.3405 22.5938145,11.9522344 C22.5938145,6.13710937 17.8628613,1.40615625 12.0477363,1.40615625 C11.6594707,1.40615625 11.3446582,1.09134375 11.3446582,0.703078125 C11.3446582,0.3148125 11.6594707,-2.93098879e-14 12.0477363,-2.93098879e-14 Z M12.0477363,2.81226562 C17.087502,2.81226562 21.1877051,6.91246875 21.1877051,11.9522344 C21.1877051,12.3405469 20.8728926,12.6553125 20.484627,12.6553125 C20.0963613,12.6553125 19.7815488,12.3405 19.7815488,11.9522344 C19.7815488,7.68778125 16.3121426,4.21842187 12.0477363,4.21842187 C11.6594707,4.21842187 11.3446582,3.90360937 11.3446582,3.51534375 C11.3446582,3.12707812 11.6594707,2.81226562 12.0477363,2.81226562 Z M12.0477363,5.62457812 C15.5368301,5.62457812 18.3753926,8.46314062 18.3753926,11.9522344 C18.3753926,12.3405469 18.0605801,12.6553125 17.6723145,12.6553125 C17.2840488,12.6553125 16.9692363,12.3405 16.9692363,11.9522344 C16.9692363,9.2385 14.7614707,7.03073437 12.0477363,7.03073437 C11.6594707,7.03073437 11.3446582,6.71592187 11.3446582,6.32765625 C11.3446582,5.93939062 11.6594707,5.62457812 12.0477363,5.62457812 Z M12.0477363,8.43684375 C13.9861113,8.43684375 15.5630801,10.0138594 15.563127,11.9522344 C15.563127,12.3405469 15.2483145,12.6553125 14.8600488,12.6553125 C14.4717832,12.6553125 14.1569707,12.3405 14.1569707,11.9522344 C14.1569707,10.7891719 13.210752,9.843 12.0477363,9.843 C11.6594707,9.843 11.3446582,9.5281875 11.3446582,9.13992187 C11.3446582,8.75165625 11.6594707,8.43684375 12.0477363,8.43684375 Z M5.30275196,2.88220313 C5.02862696,2.60807813 4.58261133,2.60807813 4.30848633,2.88220313 L4.30848633,2.88220313 L3.81133008,3.37935938 L7.78853321,7.35651563 L8.28564258,6.85940625 C8.56047071,6.58457813 8.56042383,6.13992188 8.28564258,5.86509375 L8.28564258,5.86509375 Z"></path>
        </g>
    </g>
</svg>