<?xml version="1.0" encoding="UTF-8"?>
<svg width="24px" height="24px" viewBox="0 0 24 24" version="1.1" xmlns="http://www.w3.org/2000/svg" xmlns:xlink="http://www.w3.org/1999/xlink">
    <!-- Generator: Sketch 64 (93537) - https://sketch.com -->
    <title>icon-visit</title>
    <desc>Created with Sketch.</desc>
    <g id="Symbols" stroke="none" stroke-width="1" fill="none" fill-rule="evenodd">
        <g id="icon-visit" fill="#07A39D" fill-rule="nonzero">
            <path d="M21.1569844,0 L21.1569844,1.4128125 L23.9776406,1.422375 L23.9776406,20.2054688 L8.32753125,20.2054688 C7.32201562,21.8716406 6.470625,23.1267188 6.460125,23.1422344 L6.460125,23.1422344 L5.87695312,24 L5.29378125,23.1422344 C5.28070312,23.1229687 3.97064062,21.1917187 2.67904687,18.9352969 C0.876328125,15.7857188 -1.77635684e-13,13.6093594 -1.77635684e-13,12.2819531 C-1.77635684e-13,9.04134375 2.6364375,6.40490625 5.87704687,6.40490625 C6.60496875,6.40490625 7.30214062,6.53826563 7.9460625,6.78126562 L7.9460625,6.78126562 L7.9460625,1.41998437 L10.813875,1.41998437 L10.813875,0 L21.1569844,0 Z M5.877,7.81523437 C3.41404687,7.81523437 1.41032812,9.81895312 1.41032812,12.2819062 C1.41032812,14.1896719 4.24378125,18.9525 5.877,21.4693594 C7.5103125,18.9525 10.3437187,14.1896719 10.3437187,12.2819062 C10.3437187,9.81895313 8.34,7.81523437 5.877,7.81523437 Z M19.7467031,1.410375 L12.2242031,1.410375 L12.2242031,2.83035938 L9.35639062,2.83035938 L9.35639062,7.54860938 C10.8094687,8.61960938 11.7540937,10.3424063 11.7540937,12.2819063 C11.7540937,13.5894844 10.903125,15.7214063 9.1546875,18.7950937 L9.1546875,18.7950937 L15.3275625,18.7950937 L15.3275625,15.880125 L16.7378906,15.880125 L16.7378906,18.7950937 L22.5673594,18.7950937 L22.5673594,2.82796875 L19.7467031,2.81835938 L19.7467031,1.410375 Z M5.877,9.4610625 C7.43245313,9.4610625 8.69784375,10.7264531 8.69784375,12.2819063 C8.69784375,13.8373594 7.43240625,15.10275 5.877,15.10275 C4.32159375,15.10275 3.05615625,13.8373594 3.05615625,12.2819063 C3.05615625,10.7264531 4.32159375,9.4610625 5.877,9.4610625 Z M15.3272813,13.0021875 L15.3272813,14.4126562 L12.5068125,14.4126562 L12.5068125,13.0021875 L15.3272813,13.0021875 Z M19.5582187,13.0021875 L19.5582187,14.4126562 L16.73775,14.4126562 L16.73775,13.0021875 L19.5582187,13.0021875 Z M5.877,10.8713438 C5.09920313,10.8713438 4.46648438,11.5041094 4.46648438,12.2818594 C4.46648438,13.0596563 5.09925,13.692375 5.877,13.692375 C6.65479688,13.692375 7.28751563,13.0596563 7.28751563,12.2818594 C7.28751563,11.5040625 6.65475,10.8713438 5.877,10.8713438 Z M15.3272813,10.18125 L15.3272813,11.5917188 L12.5068125,11.5917188 L12.5068125,10.18125 L15.3272813,10.18125 Z M19.5582187,10.18125 L19.5582187,11.5917188 L16.73775,11.5917188 L16.73775,10.18125 L19.5582187,10.18125 Z M15.3272813,7.425 L15.3272813,8.83546875 L12.5068125,8.83546875 L12.5068125,7.425 L15.3272813,7.425 Z M19.5582187,7.425 L19.5582187,8.83546875 L16.73775,8.83546875 L16.73775,7.425 L19.5582187,7.425 Z M15.3272813,4.60453125 L15.3272813,6.015 L12.5068125,6.015 L12.5068125,4.60453125 L15.3272813,4.60453125 Z M19.5582187,4.60453125 L19.5582187,6.015 L16.73775,6.015 L16.73775,4.60453125 L19.5582187,4.60453125 Z"></path>
        </g>
    </g>
</svg>