<?xml version="1.0" encoding="UTF-8"?>
<svg width="24px" height="24px" viewBox="0 0 24 24" version="1.1" xmlns="http://www.w3.org/2000/svg" xmlns:xlink="http://www.w3.org/1999/xlink">
    <!-- Generator: Sketch 64 (93537) - https://sketch.com -->
    <title>icon-startProject</title>
    <desc>Created with Sketch.</desc>
    <g id="Symbols" stroke="none" stroke-width="1" fill="none" fill-rule="evenodd">
        <g id="icon-startProject" fill="#07A39D" fill-rule="nonzero">
            <path d="M23.2519591,16.8893392 C23.6395146,16.8893392 23.9537135,16.5751404 23.9537135,16.1875848 L23.9537135,11.5092222 C23.9537135,10.606345 23.2191637,9.87179532 22.3162866,9.87179532 L19.6964035,9.87179532 L19.6964035,4.95951462 C19.6964035,4.57195907 19.3822047,4.25776024 18.9946491,4.25776024 L12.6788597,4.25776024 C11.2095731,4.25776024 9.94917544,5.16587719 9.42735088,6.44999415 L3.59441521,0.617105264 C2.77177193,-0.205631578 1.43993567,-0.205771929 0.617105264,0.617105264 C-0.205631578,1.43979532 -0.205771929,2.77149123 0.617105264,3.59436842 L1.45078947,4.42800585 L1.45078947,12.3347661 C-0.472438595,13.4052222 -0.502192981,16.2525673 1.51418129,17.3140877 C3.3532924,18.2823216 5.57481287,16.9958187 5.66440351,14.9296199 C5.68115205,14.5424386 5.38089474,14.2149064 4.99366667,14.1981111 C4.60849708,14.1811754 4.279,14.4815263 4.2621579,14.8688012 C4.2170117,15.9108597 3.09724562,16.5614327 2.16793567,16.0721696 C1.05373684,15.4855965 1.2015731,13.8491988 2.37626316,13.453924 C2.66183041,13.3578304 2.85425146,13.0901345 2.85425146,12.7888012 L2.85425146,5.83151462 L9.17004094,12.1473041 L9.17004094,16.1875848 C9.17004094,16.5751404 9.48423977,16.8893392 9.87179532,16.8893392 L11.2986959,16.8893392 L11.2986959,18.292848 L7.06477778,18.292848 C5.51698831,18.292848 4.25776024,19.552076 4.25776024,21.0998655 C4.25776024,22.647655 5.51698831,23.906883 7.06477778,23.906883 L21.1466491,23.906883 C22.6944386,23.906883 23.9537135,22.647655 23.9537135,21.0998655 C23.9537135,19.552076 22.6944386,18.292848 21.1466491,18.292848 L16.912731,18.292848 L16.912731,16.8893392 L23.2519591,16.8893392 Z M12.6788597,5.66126901 L18.2928947,5.66126901 L18.2928947,12.6788129 L10.5735965,12.6788129 C10.5735965,12.0618304 10.5735965,8.29069591 10.5735965,7.76653216 C10.5735965,6.60569006 11.5180175,5.66126901 12.6788597,5.66126901 Z M1.6095731,2.60190059 C1.3352807,2.32760819 1.3352807,1.88381871 1.6095731,1.60952632 C1.88381871,1.3352807 2.32770176,1.33523392 2.60199415,1.60952632 L9.17008772,8.17761988 L9.17008772,10.162462 L1.6095731,2.60190059 Z M10.5735965,14.0823216 L18.9946491,14.0823216 C19.3822047,14.0823216 19.6964035,13.7681228 19.6964035,13.3805673 L19.6964035,11.2753041 L22.3162866,11.2753041 C22.445269,11.2753041 22.5502047,11.3802398 22.5502047,11.5092222 L22.5502047,15.4858304 L10.5735965,15.4858304 L10.5735965,14.0823216 Z M18.7173158,19.6963567 C18.2248246,20.5454327 18.2028363,21.6163567 18.7173158,22.5033743 L9.49420468,22.5033743 C9.98669591,21.6542515 10.0086842,20.5833743 9.49420468,19.6963567 L18.7173158,19.6963567 Z M5.66131579,21.0998655 C5.66131579,20.3259708 6.29092983,19.6963567 7.06482456,19.6963567 C7.8387193,19.6963567 8.46833333,20.3259708 8.46833333,21.0998655 C8.46833333,21.8737602 7.8387193,22.5033743 7.06482456,22.5033743 C6.29092983,22.5033743 5.66131579,21.8737602 5.66131579,21.0998655 Z M22.5502047,21.0998655 C22.5502047,21.8737602 21.9205906,22.5033743 21.1466959,22.5033743 C20.3728012,22.5033743 19.7431871,21.8737602 19.7431871,21.0998655 C19.7431871,20.3259708 20.3728012,19.6963567 21.1466959,19.6963567 C21.9205906,19.6963567 22.5502047,20.3259708 22.5502047,21.0998655 Z M15.509269,18.292848 L12.7022515,18.292848 L12.7022515,16.8893392 L15.509269,16.8893392 L15.509269,18.292848 Z" transform="translate(11.976857, 11.953442) scale(-1, 1) translate(-11.976857, -11.953442) "></path>
        </g>
    </g>
</svg>