<?xml version="1.0" encoding="UTF-8"?>
<svg width="19px" height="17px" viewBox="0 0 19 17" version="1.1" xmlns="http://www.w3.org/2000/svg" xmlns:xlink="http://www.w3.org/1999/xlink">
    <!-- Generator: sketchtool 64 (101010) - https://sketch.com -->
    <title>9AF1BF48-3C5D-4C5E-9553-33EDD759ADB9</title>
    <desc>Created with sketchtool.</desc>
    <g id="Dashboard---AdminSide" stroke="none" stroke-width="1" fill="none" fill-rule="evenodd">
        <g id="AdminSide---Dashboard---NavbarExpanded" transform="translate(-19.000000, -287.000000)" stroke="#3E3E3E">
            <g id="leftNavBar-expanded" transform="translate(-1.000000, 64.000000)">
                <g id="Group-6" transform="translate(20.500000, 220.000000)">
                    <g id="icon_network" transform="translate(0.000000, 3.000000)">
                        <g id="Combined-Shape">
                            <path d="M8.92156576,12.5017591 L9.0933269,12.5025935 L9.26720326,12.5202036 C9.72477167,12.5901033 10.1236473,12.8375848 10.3922669,13.1895711 C10.6167993,13.4837877 10.75,13.8513553 10.75,14.25 C10.75,14.7332492 10.5541246,15.1707492 10.2374369,15.4874369 C9.92074916,15.8041246 9.48324916,16 9,16 C8.51675084,16 8.07925084,15.8041246 7.76256313,15.4874369 C7.44587542,15.1707492 7.25,14.7332492 7.25,14.25 C7.25,13.8244437 7.40183393,13.4343221 7.65443347,13.1310045 C7.99379491,12.7235045 8.51458254,12.4720279 9.0933269,12.5025935 Z M3.97504689,8.17161547 C3.89844544,8.62133737 3.64992136,9.01221775 3.29999548,9.27516797 C3.00754601,9.49492781 2.64394593,9.625 2.25,9.625 C1.76675084,9.625 1.32925084,9.42912458 1.01256313,9.11243687 C0.695875422,8.79574916 0.5,8.35824916 0.5,7.875 C0.5,7.39175084 0.695875422,6.95425084 1.01256313,6.63756313 C1.37869622,6.27143005 1.90631223,6.0667799 2.47941333,6.13961055 L2.47941333,6.13961055 L4.254,3.91 L2.86054813,6.23415441 C3.56197892,6.49588315 4.05217699,7.19449084 3.99546876,8.00021368 Z M15.75,6.125 C16.2332492,6.125 16.6707492,6.32087542 16.9874369,6.63756313 C17.3041246,6.95425084 17.5,7.39175084 17.5,7.875 C17.5,8.35824916 17.3041246,8.79574916 16.9874369,9.11243687 C16.6707492,9.42912458 16.2332492,9.625 15.75,9.625 C15.3560541,9.625 14.992454,9.49492781 14.7000045,9.27516797 C14.3063379,8.97934897 14.0410079,8.52161837 14.0044242,8.0003465 L14.0044242,8.0003465 L14.0007198,7.8260033 C14.0145729,7.30924947 14.2529927,6.84883083 14.6212514,6.5376156 C14.9259403,6.28012317 15.3198679,6.125 15.75,6.125 Z M6.63359605,3.68034363 C6.34855518,3.88181064 6.00056242,4 5.625,4 C5.19165271,4 4.79496188,3.84287587 4.48947446,3.58131987 C4.11332489,3.26084034 3.875,2.78322295 3.875,2.25 C3.875,1.76675084 4.07087542,1.32925084 4.38756313,1.01256313 C4.70425084,0.695875422 5.14175084,0.5 5.625,0.5 C6.0729654,0.5 6.48164696,0.668277802 6.79117836,0.945161194 C7.20622959,1.31643466 7.44356385,1.88270063 7.35736911,2.50043957 L7.35736911,2.50043957 C7.28777023,2.98713062 7.01754569,3.40896786 6.63359605,3.68034363 Z M7.08419948,5.73128322 C7.59271928,5.27646082 8.26408398,5 9,5 C9.49542196,5 9.96164257,5.12509217 10.3685446,5.34589948 L10.5375704,5.44517461 C11.3737979,5.97571993 11.918263,6.9260138 11.8722458,8.00021282 L11.8722458,8.00021282 L11.8565207,8.20309318 C11.7808704,8.87091988 11.4760388,9.4691309 11.0230207,9.91779556 C10.5242636,10.4117597 9.84564541,10.7246673 9.09386296,10.7484466 L9.09386296,10.7484466 L9.09323267,12.0349923 L9.09297339,10.7484405 C8.29661111,10.7738965 7.57025926,10.4748915 7.03540958,9.97406537 C6.50367805,9.47615902 6.16087954,8.77866661 6.12773939,8.00073663 L6.12773939,8.00073663 C6.08910856,7.09811777 6.46689856,6.28339994 7.08419948,5.73128322 Z M10.6270351,2.33334933 C10.6010566,1.78135469 10.8315023,1.28268252 11.2088216,0.945161194 C11.518353,0.668277802 11.9270346,0.5 12.375,0.5 C12.8582492,0.5 13.2957492,0.695875422 13.6124369,1.01256313 C13.9291246,1.32925084 14.125,1.76675084 14.125,2.25 C14.125,2.73324916 13.9291246,3.17074916 13.6124369,3.48743687 C13.2957492,3.80412458 12.8582492,4 12.375,4 C12.1262761,4 11.8896271,3.94836921 11.6753501,3.85458125 L11.6753501,3.85458125 C11.1308505,3.61660332 10.7296509,3.10935935 10.6426889,2.5002535 Z"></path>
                        </g>
                    </g>
                </g>
            </g>
        </g>
    </g>
</svg>