<?xml version="1.0" encoding="UTF-8"?>
<svg width="18px" height="18px" viewBox="0 0 18 18" version="1.1" xmlns="http://www.w3.org/2000/svg" xmlns:xlink="http://www.w3.org/1999/xlink">
    <!-- Generator: sketchtool 64 (101010) - https://sketch.com -->
    <title>C492F36B-B388-470C-9656-7E7955EF30B0</title>
    <desc>Created with sketchtool.</desc>
    <g id="Desktop" stroke="none" stroke-width="1" fill="none" fill-rule="evenodd">
        <g id="RequestEstimate_s3_desktop" transform="translate(-678.000000, -681.000000)" fill="#9CDAD8" fill-rule="nonzero">
            <g id="icon_calendar" transform="translate(678.000000, 681.000000)">
                <path d="M13.8,-1.81188398e-13 C14.1313708,-1.81188398e-13 14.4,0.26862915 14.4,0.6 L14.4,0.6 L14.399,1.799 L15.6,1.8 C16.9254834,1.8 18,2.8745166 18,4.2 L18,15 C18,16.3254834 16.9254834,17.4 15.6,17.4 L2.4,17.4 C1.0745166,17.4 0,16.3254834 0,15 L0,4.2 C0,2.8745166 1.0745166,1.8 2.4,1.8 L3.6,1.799 L3.6,0.6 C3.6,0.301766235 3.81758961,0.054353247 4.10267688,0.00785298705 L4.2,-1.81188398e-13 C4.53137085,-1.81188398e-13 4.8,0.26862915 4.8,0.6 L4.8,0.6 L4.8,1.799 L13.2,1.799 L13.2,0.6 C13.2,0.301766235 13.4175896,0.054353247 13.7026769,0.00785298705 Z M16.8,6.6 L1.2,6.599 L1.2,15 C1.2,15.6627417 1.7372583,16.2 2.4,16.2 L15.6,16.2 C16.2627417,16.2 16.8,15.6627417 16.8,15 L16.8,6.6 Z M4.2,13.26 C4.49455187,13.26 4.73953004,13.4143638 4.7903332,13.6179267 L4.8,13.6963636 L4.8,14.0236364 C4.8,14.2646333 4.53137085,14.46 4.2,14.46 C3.90544813,14.46 3.66046996,14.3056362 3.6096668,14.1020733 L3.6,14.0236364 L3.6,13.6963636 C3.6,13.4553667 3.86862915,13.26 4.2,13.26 Z M6.6,13.26 C6.89455187,13.26 7.13953004,13.4143638 7.1903332,13.6179267 L7.2,13.6963636 L7.2,14.0236364 C7.2,14.2646333 6.93137085,14.46 6.6,14.46 C6.30544813,14.46 6.06046996,14.3056362 6.0096668,14.1020733 L6,14.0236364 L6,13.6963636 C6,13.4553667 6.26862915,13.26 6.6,13.26 Z M9,13.26 C9.29455187,13.26 9.53953004,13.4143638 9.5903332,13.6179267 L9.6,13.6963636 L9.6,14.0236364 C9.6,14.2646333 9.33137085,14.46 9,14.46 C8.70544813,14.46 8.46046996,14.3056362 8.4096668,14.1020733 L8.4,14.0236364 L8.4,13.6963636 C8.4,13.4553667 8.66862915,13.26 9,13.26 Z M11.4,13.26 C11.6945519,13.26 11.93953,13.4143638 11.9903332,13.6179267 L12,13.6963636 L12,14.0236364 C12,14.2646333 11.7313708,14.46 11.4,14.46 C11.1054481,14.46 10.86047,14.3056362 10.8096668,14.1020733 L10.8,14.0236364 L10.8,13.6963636 C10.8,13.4553667 11.0686292,13.26 11.4,13.26 Z M13.8,13.26 C14.0945519,13.26 14.33953,13.4143638 14.3903332,13.6179267 L14.4,13.6963636 L14.4,14.0236364 C14.4,14.2646333 14.1313708,14.46 13.8,14.46 C13.5054481,14.46 13.26047,14.3056362 13.2096668,14.1020733 L13.2,14.0236364 L13.2,13.6963636 C13.2,13.4553667 13.4686292,13.26 13.8,13.26 Z M4.2,10.86 C4.49455187,10.86 4.73953004,11.0143638 4.7903332,11.2179267 L4.8,11.2963636 L4.8,11.6236364 C4.8,11.8646333 4.53137085,12.06 4.2,12.06 C3.90544813,12.06 3.66046996,11.9056362 3.6096668,11.7020733 L3.6,11.6236364 L3.6,11.2963636 C3.6,11.0553667 3.86862915,10.86 4.2,10.86 Z M6.6,10.86 C6.89455187,10.86 7.13953004,11.0143638 7.1903332,11.2179267 L7.2,11.2963636 L7.2,11.6236364 C7.2,11.8646333 6.93137085,12.06 6.6,12.06 C6.30544813,12.06 6.06046996,11.9056362 6.0096668,11.7020733 L6,11.6236364 L6,11.2963636 C6,11.0553667 6.26862915,10.86 6.6,10.86 Z M9,10.86 C9.29455187,10.86 9.53953004,11.0143638 9.5903332,11.2179267 L9.6,11.2963636 L9.6,11.6236364 C9.6,11.8646333 9.33137085,12.06 9,12.06 C8.70544813,12.06 8.46046996,11.9056362 8.4096668,11.7020733 L8.4,11.6236364 L8.4,11.2963636 C8.4,11.0553667 8.66862915,10.86 9,10.86 Z M13.8,10.86 C14.0945519,10.86 14.33953,11.0143638 14.3903332,11.2179267 L14.4,11.2963636 L14.4,11.6236364 C14.4,11.8646333 14.1313708,12.06 13.8,12.06 C13.5054481,12.06 13.26047,11.9056362 13.2096668,11.7020733 L13.2,11.6236364 L13.2,11.2963636 C13.2,11.0553667 13.4686292,10.86 13.8,10.86 Z M4.2,8.46 C4.49455187,8.46 4.73953004,8.61436378 4.7903332,8.81792672 L4.8,8.89636364 L4.8,9.22363636 C4.8,9.46463335 4.53137085,9.66 4.2,9.66 C3.90544813,9.66 3.66046996,9.50563622 3.6096668,9.30207328 L3.6,9.22363636 L3.6,8.89636364 C3.6,8.65536665 3.86862915,8.46 4.2,8.46 Z M6.6,8.46 C6.89455187,8.46 7.13953004,8.61436378 7.1903332,8.81792672 L7.2,8.89636364 L7.2,9.22363636 C7.2,9.46463335 6.93137085,9.66 6.6,9.66 C6.30544813,9.66 6.06046996,9.50563622 6.0096668,9.30207328 L6,9.22363636 L6,8.89636364 C6,8.65536665 6.26862915,8.46 6.6,8.46 Z M9,8.46 C9.29455187,8.46 9.53953004,8.61436378 9.5903332,8.81792672 L9.6,8.89636364 L9.6,9.22363636 C9.6,9.46463335 9.33137085,9.66 9,9.66 C8.70544813,9.66 8.46046996,9.50563622 8.4096668,9.30207328 L8.4,9.22363636 L8.4,8.89636364 C8.4,8.65536665 8.66862915,8.46 9,8.46 Z M11.4,8.46 C11.6945519,8.46 11.93953,8.61436378 11.9903332,8.81792672 L12,8.89636364 L12,9.22363636 C12,9.46463335 11.7313708,9.66 11.4,9.66 C11.1054481,9.66 10.86047,9.50563622 10.8096668,9.30207328 L10.8,9.22363636 L10.8,8.89636364 C10.8,8.65536665 11.0686292,8.46 11.4,8.46 Z M13.8,8.46 C14.0945519,8.46 14.33953,8.61436378 14.3903332,8.81792672 L14.4,8.89636364 L14.4,9.22363636 C14.4,9.46463335 14.1313708,9.66 13.8,9.66 C13.5054481,9.66 13.26047,9.50563622 13.2096668,9.30207328 L13.2,9.22363636 L13.2,8.89636364 C13.2,8.65536665 13.4686292,8.46 13.8,8.46 Z M15.6,3 L2.4,3 C1.7372583,3 1.2,3.5372583 1.2,4.2 L1.2,5.399 L16.8,5.4 L16.8,5.4 L16.8,4.2 C16.8,3.5372583 16.2627417,3 15.6,3 Z" id="calendar"></path>
            </g>
        </g>
    </g>
</svg>