<?xml version="1.0" encoding="UTF-8"?>
<svg width="19px" height="19px" viewBox="0 0 19 19" version="1.1" xmlns="http://www.w3.org/2000/svg" xmlns:xlink="http://www.w3.org/1999/xlink">
    <!-- Generator: sketchtool 64 (101010) - https://sketch.com -->
    <title>B9FD1C4C-D78E-4E15-AC44-544EA59DC9AE</title>
    <desc>Created with sketchtool.</desc>
    <g id="Dashboard---AdminSide" stroke="none" stroke-width="1" fill="none" fill-rule="evenodd">
        <g id="AdminSide---IdeaBoardEdits" transform="translate(-615.000000, -194.000000)" fill="#3E3E3E" fill-rule="nonzero" stroke="#3E3E3E" stroke-width="0.3">
            <g id="Group-4" transform="translate(603.000000, 181.000000)">
                <g id="Group-2" transform="translate(13.000000, 14.000000)">
                    <g id="edit">
                        <path d="M5.87616326,1.65849044 C6.11001903,1.65849044 6.29955133,1.84818815 6.29955133,2.08187851 C6.29955133,2.31573424 6.11001903,2.50526657 5.87616326,2.50526657 L5.87616326,2.50526657 L2.11694033,2.50526657 C1.41570385,2.50609349 0.847603052,3.07435966 0.846776133,3.77543077 L0.846776133,3.77543077 L0.846776133,14.8084938 C0.847603052,15.5097303 1.41570385,16.0779964 2.11694033,16.078658 L2.11694033,16.078658 L13.9967795,16.078658 C14.698016,16.0779964 15.2661167,15.5097303 15.2669437,14.8084938 L15.2669437,14.8084938 L15.2669437,11.0492708 C15.2669437,10.8154151 15.456476,10.6258828 15.6903317,10.6258828 C15.9241875,10.6258828 16.1137198,10.8154151 16.1137198,11.0492708 L16.1137198,11.0492708 L16.1137198,14.8086592 C16.1123967,15.9772764 15.1653967,16.9242764 13.9967795,16.9255995 L13.9967795,16.9255995 L2.11694033,16.9255995 C0.948323135,16.9242764 0.00132308771,15.9772764 1.87978028e-12,14.8086592 L1.87978028e-12,14.8086592 L1.87978028e-12,3.77543077 C0.00132308771,2.60681353 0.948323135,1.65981353 2.11694033,1.65849044 L2.11694033,1.65849044 Z M13.2515503,0.56909309 C13.9956218,-0.174978328 15.201947,-0.174978328 15.9460184,0.56909309 L15.9460184,0.56909309 L16.4428379,1.06591252 C17.1857516,1.81048015 17.1857516,3.01581305 16.4428379,3.76038064 L16.4428379,3.76038064 L8.88949556,11.3140537 C8.83772972,11.3658196 8.77355996,11.4031968 8.70310556,11.4227123 L8.70310556,11.4227123 L5.11704171,12.4161858 C4.9700136,12.4568708 4.81256616,12.4153589 4.70456914,12.3075272 C4.59673745,12.1995302 4.5552256,12.0420828 4.59607594,11.8950547 L4.59607594,11.8950547 L5.58938402,8.3089908 C5.60889954,8.2385364 5.64627679,8.17436661 5.69804259,8.12260081 L5.69804259,8.12260081 Z M6.22231611,9.19694803 L5.61187651,11.4003852 L7.81514834,10.7899456 L6.22231611,9.19694803 Z M12.8025274,2.21567574 L6.62056551,8.39780305 L8.61412789,10.3915309 L14.7962552,4.20940354 L12.8025274,2.21567574 Z M15.3471559,1.16779028 C14.9338563,0.754490744 14.2637124,0.754490744 13.8504129,1.16779028 L13.8504129,1.16779028 L13.4012246,1.61681318 L15.3951178,3.61070635 L15.8441407,3.16168345 C16.2567787,2.74805317 16.2567787,2.07840541 15.8441407,1.66460971 L15.8441407,1.66460971 Z" id="Combined-Shape"></path>
                    </g>
                </g>
            </g>
        </g>
    </g>
</svg>