<?xml version="1.0" encoding="UTF-8"?>
<svg width="24px" height="23px" viewBox="0 0 24 23" version="1.1" xmlns="http://www.w3.org/2000/svg" xmlns:xlink="http://www.w3.org/1999/xlink">
    <title>DF11DD81-95AF-4FD5-95FB-5F0321F26F7E</title>
    <g id="Dashboard---AdminSide" stroke="none" stroke-width="1" fill="none" fill-rule="evenodd">
        <g id="AdminSide---Dashboard---Messages" transform="translate(-1263.000000, -771.000000)" fill="#FFFFFF" fill-rule="nonzero">
            <g id="Group-3" transform="translate(1248.000000, 756.000000)">
                <g id="icon_send" transform="translate(14.999955, 15.046459)">
                    <path d="M23.953129,0.774460515 L23.9494966,0.825404122 C23.9483544,0.83680983 23.9469488,0.848226499 23.9452766,0.859646502 L21.2006372,19.3235841 C21.1677016,19.5431553 21.038953,19.7367771 20.8483253,19.852551 C20.7305554,19.9244106 20.5958185,19.9613385 20.4600836,19.9613385 C20.3782435,19.9613385 20.2964033,19.9473658 20.2185554,19.9214165 L13.721,17.701 L10.0853468,22.6510851 C9.94062943,22.845705 9.71506997,22.9554906 9.48152611,22.9554906 C9.40367816,22.9554906 9.32483216,22.9435139 9.2489803,22.9185627 C8.94058264,22.8167615 8.7329881,22.530321 8.7329881,22.2069525 L8.732,15.995 L0.507054378,13.1845744 C0.223607984,13.0867654 0.0259939493,12.8312644 0.0020407329,12.5328473 C-0.0199163821,12.2344301 0.136777575,11.9509837 0.401261006,11.8122547 L22.8574014,0.085159173 L22.8745141,0.0757817332 C22.9029002,0.0618744781 22.9320109,0.0498672894 22.9616507,0.0397643962 L22.8574014,0.085159173 C22.8950721,0.0657984905 22.9339165,0.0498005658 22.9735034,0.0371450359 C23.2235148,-0.0450637581 23.5102172,0.00903512546 23.7157249,0.200933052 C23.8690444,0.343626382 23.9487366,0.535832097 23.9533708,0.730206748 C23.9531973,0.738356862 23.9532852,0.746752617 23.9532318,0.755163072 L23.953129,0.774460515 L23.953129,0.774460515 Z M10.23,16.507 L10.2300641,19.9244106 L12.236,17.193 L10.23,16.507 Z M22.109,3.021 L10.823,15.128 L19.8512727,18.2137518 L22.109,3.021 Z M19.673,3.437 L2.64088674,12.331241 L9.27,14.597 L19.673,3.437 Z" id="send"></path>
                </g>
            </g>
        </g>
    </g>
</svg>