<?xml version="1.0" encoding="UTF-8"?>
<svg width="18px" height="18px" viewBox="0 0 18 18" version="1.1" xmlns="http://www.w3.org/2000/svg" xmlns:xlink="http://www.w3.org/1999/xlink">
    <!-- Generator: sketchtool 64 (101010) - https://sketch.com -->
    <title>6B89F032-5848-45A8-9ED3-0509ED46FD0D</title>
    <desc>Created with sketchtool.</desc>
    <g id="Dashboard---ClientSide" stroke="none" stroke-width="1" fill="none" fill-rule="evenodd">
        <g id="ClientSide---Dashboard---NewProject_s2" transform="translate(-975.000000, -295.000000)" fill="#9CDAD8" fill-rule="nonzero">
            <g id="icon_time" transform="translate(975.000000, 295.000000)">
                <path d="M9,0 C11.4039844,0 13.6640742,0.936175781 15.3639844,2.63601563 C17.0638242,4.33592578 18,6.59601562 18,9 C18,11.4039844 17.0638242,13.6640742 15.3639844,15.3639844 C13.6640742,17.0638242 11.4039844,18 9,18 C6.59601562,18 4.33592578,17.0638242 2.63601563,15.3639844 C0.936175781,13.6640742 0,11.4039844 0,9 C0,6.59601562 0.936175781,4.33592578 2.63601563,2.63601563 C4.33592578,0.936175781 6.59601562,0 9,0 Z M9,1.0546875 C6.87772266,1.0546875 4.8825,1.88114063 3.38182031,3.38182031 C1.88114062,4.8825 1.0546875,6.87772266 1.0546875,9 C1.0546875,11.1222773 1.88114062,13.1175 3.38182031,14.6181797 C4.8825,16.1188594 6.87772266,16.9453125 9,16.9453125 C11.1222773,16.9453125 13.1175,16.1188594 14.6181797,14.6181797 C16.1188594,13.1175 16.9453125,11.1222773 16.9453125,9 C16.9453125,6.87772266 16.1188594,4.8825 14.6181797,3.38182031 C13.1175,1.88114063 11.1222773,1.0546875 9,1.0546875 Z M9.52734375,14.4819844 L9.52734375,15.8893594 L8.47265625,15.8893594 L8.47265625,14.4819844 L9.52734375,14.4819844 Z M13.2463858,12.5035906 L14.2413999,13.4986047 L13.4957358,14.2442688 L12.5007217,13.2492547 L13.2463858,12.5035906 Z M4.74881175,12.5026553 L5.49447581,13.2483194 L4.49946169,14.2433335 L3.75379763,13.4976694 L4.74881175,12.5026553 Z M15.8893594,8.47265625 L15.8893594,9.52734375 L14.4819844,9.52734375 L14.4819844,8.47265625 L15.8893594,8.47265625 Z M3.51801563,8.47265625 L3.51801563,9.52734375 L2.11064063,9.52734375 L2.11064063,8.47265625 L3.51801563,8.47265625 Z M9.52734375,5.27723438 L9.52734375,8.47265625 L12.7227656,8.47265625 L12.7227656,9.52734375 L8.47265625,9.52734375 L8.47265625,5.27723438 L9.52734375,5.27723438 Z M13.4966711,3.75666652 L14.2423352,4.50233058 L13.2473211,5.4973447 L12.501657,4.75168064 L13.4966711,3.75666652 Z M4.50039698,3.75573122 L5.49541111,4.75074534 L4.74974705,5.49640941 L3.75473292,4.50139528 L4.50039698,3.75573122 Z M9.52734375,2.11064062 L9.52734375,3.51801562 L8.47265625,3.51801562 L8.47265625,2.11064062 L9.52734375,2.11064062 Z" id="time"></path>
            </g>
        </g>
    </g>
</svg>