<?xml version="1.0" encoding="UTF-8"?>
<svg width="15px" height="18px" viewBox="0 0 15 18" version="1.1" xmlns="http://www.w3.org/2000/svg" xmlns:xlink="http://www.w3.org/1999/xlink">
    <!-- Generator: sketchtool 64 (101010) - https://sketch.com -->
    <title>A9925C3F-0AA7-4953-BA82-F27FDF92CEBA</title>
    <desc>Created with sketchtool.</desc>
    <g id="Dashboard---AdminSide" stroke="none" stroke-width="1" fill="none" fill-rule="evenodd">
        <g id="AdminSide---IdeaBoardEdits" transform="translate(-616.000000, -228.000000)" fill="#3E3E3E" fill-rule="nonzero">
            <g id="Group-4" transform="translate(603.000000, 181.000000)">
                <g id="Group-3" transform="translate(13.000000, 47.000000)">
                    <g id="trash">
                        <path d="M8.8801117,0 C9.42352295,0 9.86544802,0.442337027 9.86544802,0.985885629 L9.86544802,0.985885629 L9.86544802,2.07339476 L13.2057037,2.07339476 C13.6838837,2.07339476 14.1069946,2.3782654 14.2583313,2.83200075 L14.2583313,2.83200075 L14.6557617,4.02333068 C14.7462616,4.29455566 14.7003937,4.59503174 14.5332642,4.82698058 C14.3661347,5.05879211 14.0957336,5.1973572 13.8098145,5.1973572 L13.8098145,5.1973572 L13.5797882,5.1973572 L12.6654511,16.5036621 C12.5976105,17.3427429 11.8855591,18 11.0445557,18 L11.0445557,18 L3.84233094,18 C3.0011902,18 2.28927614,17.3427429 2.22129823,16.5037994 L2.22129823,16.5037994 L1.30696105,5.1973572 L0.891540527,5.1973572 C0.60562132,5.1973572 0.335220328,5.05879211 0.16809082,4.82684326 C0.000961305467,4.59489442 -0.044906625,4.29455566 0.0455932617,4.02333068 L0.0455932617,4.02333068 L0.443023664,2.83200075 C0.594360352,2.3782654 1.0174713,2.07339476 1.49578857,2.07339476 L1.49578857,2.07339476 L4.835907,2.07339476 L4.835907,0.985885629 C4.835907,0.442337027 5.27796935,0 5.82124328,0 L5.82124328,0 Z M12.5216675,5.1973572 L2.3650818,5.1973572 L3.27268983,16.4186554 C3.29658507,16.7140503 3.54679871,16.9453125 3.84233094,16.9453125 L3.84233094,16.9453125 L11.0445557,16.9453125 C11.3400879,16.9453125 11.5903015,16.7140503 11.6141968,16.4186554 L11.6141968,16.4186554 L12.5216675,5.1973572 Z M10.482193,5.82179259 C10.7729187,5.83689881 10.9964905,6.08505251 10.9813843,6.37591553 L10.9813843,6.37591553 L10.4861756,15.8821106 C10.4716187,16.1636353 10.2387085,16.3819885 9.96006776,16.3819885 L9.96006776,16.3819885 L9.93218994,16.3813019 C9.64132692,16.3661957 9.41789246,16.118042 9.43299865,15.8271789 L9.43299865,15.8271789 L9.92807009,6.32098389 C9.94331359,6.03012087 10.1906433,5.80627441 10.482193,5.82179259 Z M4.21792601,5.82192991 C4.50878906,5.80599977 4.75735472,6.02888488 4.77314757,6.31974793 L4.77314757,6.31974793 L5.29183962,15.825943 C5.30763244,16.116806 5.0847473,16.3653717 4.7940216,16.3811646 L4.7940216,16.3811646 L4.76477051,16.3819885 C4.48667909,16.3819885 4.25404357,16.1644592 4.23866271,15.8833466 L4.23866271,15.8833466 L3.72010802,6.37715148 C3.7043152,6.08628846 3.92720031,5.83772277 4.21792601,5.82192991 Z M7.35658263,5.82110596 C7.64785765,5.82110596 7.88392638,6.05717469 7.88392638,6.34844971 L7.88392638,6.34844971 L7.88392638,15.8546448 C7.88392638,16.1459198 7.64785765,16.3819885 7.35658263,16.3819885 C7.06530762,16.3819885 6.82923888,16.1459198 6.82923888,15.8546448 L6.82923888,15.8546448 L6.82923888,6.34844971 C6.82923888,6.05717469 7.06530762,5.82110596 7.35658263,5.82110596 Z M13.2057037,3.12808226 L1.49578857,3.12808226 C1.47203065,3.12808226 1.4510193,3.14318848 1.44360352,3.16571045 L1.44360352,3.16571045 L1.11772157,4.1426697 L13.5837707,4.1426697 L13.2578888,3.16571045 C13.2503357,3.14318848 13.2294617,3.12808226 13.2057037,3.12808226 L13.2057037,3.12808226 Z M8.81076052,1.0546875 L5.8905945,1.0546875 L5.8905945,2.07339476 L8.81076052,2.07339476 L8.81076052,1.0546875 Z" id="Combined-Shape"></path>
                    </g>
                </g>
            </g>
        </g>
    </g>
</svg>