<?xml version="1.0" encoding="UTF-8"?>
<svg width="24px" height="22px" viewBox="0 0 24 22" version="1.1" xmlns="http://www.w3.org/2000/svg" xmlns:xlink="http://www.w3.org/1999/xlink">
    <!-- Generator: sketchtool 64 (101010) - https://sketch.com -->
    <title>A1E98C05-AECB-44CC-8BA7-16E0D03F4664</title>
    <desc>Created with sketchtool.</desc>
    <g id="Dashboard---ClientSide" stroke="none" stroke-width="1" fill="none" fill-rule="evenodd">
        <g id="ClientSide---EstimateVisitNotice" transform="translate(-152.000000, -157.000000)" fill="#FFFFFF" fill-rule="nonzero">
            <g id="icon_alert" transform="translate(152.000000, 157.000000)">
                <path d="M12.0000117,-2.14939178e-13 C13.020293,-2.14939178e-13 13.9339336,0.52753125 14.4440273,1.41103125 L14.4440273,1.41103125 L23.6174648,17.299875 C24.1276055,18.1834219 24.1276055,19.2383906 23.6174648,20.1219844 C23.1072773,21.0054375 22.1936367,21.5329687 21.1734023,21.5329687 L21.1734023,21.5329687 L2.82662109,21.5329687 C1.80633984,21.5329687 0.892746094,21.0054844 0.382605469,20.1219375 C-0.127535156,19.2383906 -0.127535156,18.1834219 0.382605469,17.2998281 L0.382605469,17.2998281 L9.55599609,1.41103125 C10.0660898,0.52753125 10.9797773,-2.14939178e-13 12.0000117,-2.14939178e-13 Z M12.0000586,1.40610937 C11.4881367,1.40610937 11.0296992,1.67076562 10.7737617,2.11410937 L10.7737617,2.11410937 L1.60027734,18.0029531 C1.34433984,18.4462969 1.34433984,18.9756094 1.60027734,19.4189531 C1.85621484,19.8622969 2.31465234,20.1269531 2.82662109,20.1269531 L2.82662109,20.1269531 L21.1734023,20.1269531 C21.6853242,20.1269531 22.1437617,19.8622969 22.3997461,19.4189531 C22.6556836,18.9756094 22.6556836,18.4462969 22.399793,18.0029531 L22.399793,18.0029531 L13.2263555,2.11410937 C12.970418,1.67076562 12.5119336,1.40610937 12.0000586,1.40610937 Z M12.0000117,15.4535156 C12.5169023,15.4535156 12.937418,15.8740312 12.937418,16.3909219 C12.937418,16.9078125 12.5168555,17.3283281 12.0000117,17.3283281 C11.4831211,17.3283281 11.0626055,16.9078125 11.0626055,16.3909219 C11.0626055,15.8740312 11.4831211,15.4535156 12.0000117,15.4535156 Z M12.7029961,7.01695313 L12.7029961,14.0473594 L11.2969336,14.0473594 L11.2969336,7.01695313 L12.7029961,7.01695313 Z" id="alert"></path>
            </g>
        </g>
    </g>
</svg>