<?xml version="1.0" encoding="UTF-8"?>
<svg width="27px" height="23px" viewBox="0 0 27 23" version="1.1" xmlns="http://www.w3.org/2000/svg" xmlns:xlink="http://www.w3.org/1999/xlink">
    <!-- Generator: sketchtool 64 (101010) - https://sketch.com -->
    <title>6B2C2FDF-7FA7-4FEE-A95D-03C57B8FF3EB</title>
    <desc>Created with sketchtool.</desc>
    <g id="Dashboard---ClientSide" stroke="none" stroke-width="1" fill="none" fill-rule="evenodd" stroke-linejoin="round">
        <g id="ClientSide---CreditCardPayment" transform="translate(-664.000000, -281.000000)" fill="#FFFFFF" fill-rule="nonzero" stroke="#FFFFFF">
            <g id="icon_scan" transform="translate(663.000000, 281.000000)">
                <path d="M3.88571429,14.5142857 L3.88571429,20.5714286 C3.88571429,21.0534225 4.25868699,21.4483041 4.73176579,21.4832065 L4.8,21.4857143 L10.8571429,21.4857143 L10.8571429,22.4 L4.8,22.4 C3.82071068,22.4 3.02122109,21.6301858 2.97366643,20.6626927 L2.97142857,20.5714286 L2.97142857,14.5142857 L3.88571429,14.5142857 Z M25.4857143,14.5142857 L25.4857143,20.5714286 C25.4857143,21.5507179 24.7159001,22.3502075 23.748407,22.3977621 L23.6571429,22.4 L17.6,22.4 L17.6,21.4857143 L23.6571429,21.4857143 C24.1391368,21.4857143 24.5340183,21.1127416 24.5689208,20.6396628 L24.5714286,20.5714286 L24.5714286,14.5142857 L25.4857143,14.5142857 Z M26.7428571,11.3142857 L26.7428571,12.3142857 L1.6,12.3142857 L1.6,11.3142857 L26.7428571,11.3142857 Z M23.6571429,0.8 C24.6364322,0.8 25.4359218,1.56981416 25.4834764,2.53730727 L25.4857143,2.62857143 L25.4857143,8.68571429 L24.5714286,8.68571429 L24.5714286,2.62857143 C24.5714286,2.14657747 24.1984559,1.75169594 23.7253771,1.71679348 L23.6571429,1.71428571 L17.6,1.71428571 L17.6,0.8 L23.6571429,0.8 Z M10.8571429,0.8 L10.8571429,1.71428571 L4.8,1.71428571 C4.31800604,1.71428571 3.92312452,2.08725842 3.88822205,2.56033721 L3.88571429,2.62857143 L3.88571429,8.68571429 L2.97142857,8.68571429 L2.97142857,2.62857143 C2.97142857,1.64928211 3.74124273,0.849792514 4.70873584,0.802237855 L4.8,0.8 L10.8571429,0.8 Z" id="scan"></path>
            </g>
        </g>
    </g>
</svg>