<?xml version="1.0" encoding="UTF-8"?>
<svg width="16px" height="16px" viewBox="0 0 16 16" version="1.1" xmlns="http://www.w3.org/2000/svg" xmlns:xlink="http://www.w3.org/1999/xlink">
    <!-- Generator: sketchtool 64 (101010) - https://sketch.com -->
    <title>2E7DC6C9-3691-4A14-AF3A-FA450CDE38E5</title>
    <desc>Created with sketchtool.</desc>
    <g id="Desktop" stroke="none" stroke-width="1" fill="none" fill-rule="evenodd">
        <g id="Home_desktop" transform="translate(-1219.000000, -6305.000000)" fill="#FFFFFF" fill-rule="nonzero">
            <g id="footer_desktop" transform="translate(0.000000, 6146.000000)">
                <g id="icon_Instagram" transform="translate(1219.000000, 159.000000)">
                    <path d="M8.9388978,0.000677814724 C10.2785206,0.00379456169 10.5862395,0.015967678 11.2998422,0.0498421832 C12.1498178,0.087317777 12.7311166,0.224768964 13.240394,0.421668371 C13.771644,0.621619558 14.256019,0.937293371 14.6560434,1.34354337 C15.0654672,1.74356778 15.3779672,2.22476896 15.5810922,2.76224456 C15.7779916,3.26859218 15.9154428,3.85294278 15.9529184,4.70291837 C15.984148,5.41387621 15.991557,5.72115432 15.9931592,7.06070363 L15.9930907,8.73002919 C15.9907792,10.2487138 15.9794839,10.5501626 15.9466928,11.2966684 C15.9092172,12.146644 15.771644,12.7279428 15.5748666,13.2373422 C15.1592172,14.3122934 14.3092416,15.162269 13.2341684,15.5779184 C12.7279428,15.7748178 12.1435922,15.912269 11.2936166,15.9497446 C10.5471109,15.9826425 10.245662,15.9938577 8.7269774,15.9961475 L7.26650077,15.9961475 C5.74779445,15.9938577 5.44626554,15.9826425 4.69986659,15.9497446 C3.84976896,15.912269 3.26859218,15.7748178 2.75919278,15.5779184 C2.22794278,15.3779672 1.74356778,15.0622934 1.34354337,14.6560434 C0.937293371,14.256019 0.621741589,13.7748178 0.418616589,13.2373422 C0.221717183,12.7309946 0.0841439645,12.146644 0.0466683707,11.2966684 C0.0154387093,10.5857105 0.00370640023,10.2784324 0.000663121148,8.93888311 L0.000677814724,7.06068894 C0.00379456169,5.72106616 0.015967678,5.41334724 0.0498421832,4.69974456 C0.087317777,3.84976896 0.224768964,3.26859218 0.421668371,2.75919278 C0.621741589,2.22794278 0.937293371,1.74356778 1.34354337,1.34354337 C1.74356778,0.934119558 2.22476896,0.621619558 2.76236659,0.418494558 C3.26859218,0.221717183 3.85294278,0.0841439645 4.70291837,0.0466683707 C5.41387621,0.0154387093 5.72115432,0.00370640023 7.06070363,0.000663121148 Z M8.26357923,1.45296868 L7.74885291,1.45296868 C5.84961847,1.4537504 5.58341153,1.46387926 4.77481778,1.49979337 C3.99674159,1.53421718 3.57169278,1.66544278 3.29044278,1.77481778 C2.94351896,1.90286956 2.63101896,2.10599456 2.37174159,2.37161956 C2.10294278,2.62796718 1.89981778,2.94351896 1.77164396,3.29044278 C1.66226896,3.57169278 1.53104337,3.99356778 1.49674159,4.77481778 C1.45914396,5.61539396 1.44986659,5.87161956 1.44986659,8.00601896 L1.44991629,8.26319965 C1.45068887,10.1625415 1.46071053,10.4287484 1.49674159,11.2373422 C1.53104337,12.0154184 1.66226896,12.4404672 1.77164396,12.7217172 C1.89981778,13.068519 2.10294278,13.381019 2.36856778,13.6404184 C2.62479337,13.9060434 2.94046718,14.1091684 3.28726896,14.2373422 C3.56851896,14.3467172 3.99039396,14.4779428 4.77164396,14.5122446 C5.61234218,14.5498422 5.86856778,14.5591196 8.00296718,14.5591196 L8.26014725,14.5590699 C10.1594798,14.5582973 10.4255746,14.5482756 11.2341684,14.5122446 C12.0123666,14.4779428 12.4372934,14.3467172 12.7185434,14.2373422 C13.4154428,13.9685434 13.9685434,13.4154428 14.2373422,12.7185434 C14.3467172,12.4372934 14.4779428,12.0154184 14.5123666,11.2341684 C14.5467192,10.4607309 14.55748,10.1862083 14.559035,8.50179461 L14.559035,7.51018327 C14.55748,5.82534219 14.5467192,5.54825528 14.5123666,4.77481778 C14.4779428,3.99661956 14.3467172,3.57169278 14.2373422,3.29044278 C14.1091684,2.94351896 13.9060434,2.63101896 13.6404184,2.37161956 C13.3841928,2.10599456 13.068519,1.90286956 12.7217172,1.77481778 C12.4404672,1.66544278 12.0185922,1.53421718 11.2373422,1.49979337 C10.396644,1.46231778 10.1435922,1.45291837 8.00601896,1.45291837 Z M7.99979337,3.89041837 C10.2685922,3.89041837 12.1091684,5.73099456 12.1091684,7.99979337 C12.1091684,10.2685922 10.2685922,12.1091684 7.99979337,12.1091684 C5.73111659,12.1091684 3.89041837,10.2685922 3.89041837,7.99979337 C3.89041837,5.73099456 5.73111659,3.89041837 7.99979337,3.89041837 Z M7.99979337,5.33414396 C6.52799159,5.33414396 5.33414396,6.52786956 5.33414396,7.99979337 C5.33414396,9.47171718 6.52799159,10.6654428 7.99979337,10.6654428 C9.47171718,10.6654428 10.6654428,9.47171718 10.6654428,7.99979337 C10.6654428,6.52786956 9.47171718,5.33414396 7.99979337,5.33414396 Z M12.271644,2.76859218 C12.8015512,2.76859218 13.2311166,3.19803556 13.2311166,3.72794278 C13.2311166,4.25772793 12.8015512,4.68729337 12.271644,4.68729337 C11.7418588,4.68729337 11.3122934,4.25772793 11.3122934,3.72794278 C11.3122934,3.19803556 11.7418588,2.76859218 12.271644,2.76859218 Z" id="Combined-Shape"></path>
                </g>
            </g>
        </g>
    </g>
</svg>