<?xml version="1.0" encoding="UTF-8"?>
<svg width="13px" height="16px" viewBox="0 0 13 16" version="1.1" xmlns="http://www.w3.org/2000/svg" xmlns:xlink="http://www.w3.org/1999/xlink">
    <!-- Generator: sketchtool 64 (101010) - https://sketch.com -->
    <title>6EBBFA4A-031F-417F-BFD5-A4E911B95ACD</title>
    <desc>Created with sketchtool.</desc>
    <g id="Desktop" stroke="none" stroke-width="1" fill="none" fill-rule="evenodd">
        <g id="Home_desktop" transform="translate(-1255.000000, -6305.000000)" fill="#FFFFFF" fill-rule="nonzero">
            <g id="footer_desktop" transform="translate(0.000000, 6146.000000)">
                <g id="icon_Pinterest" transform="translate(1255.000000, 159.000000)">
                    <path d="M6.71736275,-1.20245694e-14 C2.33134354,0.000666669586 1.09314267e-14,2.81067898 1.09314267e-14,5.87469239 C1.09314267e-14,7.29536528 0.794003477,9.06803971 2.06534238,9.63004217 C2.42801063,9.79337622 2.38001042,9.59404202 2.69201179,8.40070346 C2.71667856,8.30136969 2.70401184,8.21536931 2.62401149,8.12270224 C0.806670199,6.02069303 2.26934327,1.69934078 6.45802828,1.69934078 C12.5200548,1.69934078 11.3873832,10.0873775 7.51269957,10.0873775 C6.51402853,10.0873775 5.77002527,9.30337408 6.00535963,8.33336983 C6.29069422,7.17803144 6.84936333,5.936026 6.84936333,5.10335568 C6.84936333,3.00467983 3.72268297,3.31601452 3.72268297,6.09669337 C3.72268297,6.95603046 4.0266843,7.536033 4.0266843,7.536033 C4.0266843,7.536033 3.0206799,11.6000508 2.83401241,12.3593875 C2.51801103,13.6447264 2.87667927,15.7254022 2.90801274,15.9047363 C2.92734615,16.0034034 3.03801331,16.0347369 3.10001358,15.9534032 C3.19934734,15.8234026 4.41535267,14.0887284 4.75602083,12.8347229 C4.88002137,12.3780542 5.38869027,10.5247128 5.38869027,10.5247128 C5.72402507,11.1300487 6.69069597,11.6367176 7.72070048,11.6367176 C10.7847139,11.6367176 12.9993903,8.9433725 12.9993903,5.60135786 C12.9887236,2.39734383 10.2467115,-1.20245694e-14 6.71736275,-1.20245694e-14 Z" id="Path"></path>
                </g>
            </g>
        </g>
    </g>
</svg>