<?xml version="1.0" encoding="UTF-8"?>
<svg width="48px" height="48px" viewBox="0 0 48 48" version="1.1" xmlns="http://www.w3.org/2000/svg" xmlns:xlink="http://www.w3.org/1999/xlink">
    <!-- Generator: sketchtool 64 (101010) - https://sketch.com -->
    <title>81CF6A55-E09F-41A8-B74B-49E50BB835D2</title>
    <desc>Created with sketchtool.</desc>
    <g id="Dashboard---AdminSide" stroke="none" stroke-width="1" fill="none" fill-rule="evenodd">
        <g id="AdminSide---Dashboard" transform="translate(-1046.000000, -119.000000)">
            <g id="icon-blockApplicants" transform="translate(1046.000000, 119.000000)">
                <circle id="Oval" fill="#E6F6F5" cx="24" cy="24" r="24"></circle>
                <path d="M30.8518086,15 C31.4333633,15 31.9064961,15.4731328 31.9064961,16.0546875 L31.9064961,16.0546875 L31.9064961,19.8779297 C31.9064961,20.0720977 31.7490664,20.2294922 31.5549336,20.2294922 C31.3608008,20.2294922 31.2033711,20.0720977 31.2033711,19.8779297 L31.2033711,19.8779297 L31.2033711,16.0546875 C31.2033711,15.8608359 31.0456602,15.703125 30.8518086,15.703125 L30.8518086,15.703125 L18.0549336,15.703125 C17.861082,15.703125 17.7033711,15.8608359 17.7033711,16.0546875 L17.7033711,16.0546875 L17.7033711,31.9453125 C17.7033711,32.1391641 17.861082,32.296875 18.0549336,32.296875 L18.0549336,32.296875 L30.8518086,32.296875 C31.0456602,32.296875 31.2033711,32.1391641 31.2033711,31.9453125 L31.2033711,31.9453125 L31.2033711,29.3552812 C31.2033711,29.1611133 31.3608008,29.0037187 31.5549336,29.0037187 C31.7490664,29.0037187 31.9064961,29.1611133 31.9064961,29.3552812 L31.9064961,29.3552812 L31.9064961,31.9453125 C31.9064961,32.5268672 31.4333633,33 30.8518086,33 L30.8518086,33 L18.0549336,33 C17.4733789,33 17.0002461,32.5268672 17.0002461,31.9453125 L17.0002461,31.9453125 L17.0002461,16.0546875 C17.0002461,15.4731328 17.4733789,15 18.0549336,15 L18.0549336,15 Z M26.3518086,30.3984375 C26.5459414,30.3984375 26.7033711,30.555832 26.7033711,30.75 C26.7033711,30.944168 26.5459414,31.1015625 26.3518086,31.1015625 L26.3518086,31.1015625 L24.4533711,31.1015625 C24.2592383,31.1015625 24.1018086,30.944168 24.1018086,30.75 C24.1018086,30.555832 24.2592383,30.3984375 24.4533711,30.3984375 L24.4533711,30.3984375 Z M33.1413242,19.4340469 C33.5223477,19.3319883 33.9202461,19.3843711 34.2617891,19.5815625 C34.9668828,19.9886719 35.2093203,20.8935234 34.8022109,21.5986172 L34.8022109,21.5986172 L30.3781133,29.2613789 C30.3538906,29.3033906 30.3211953,29.339918 30.2821367,29.3686758 L30.2821367,29.3686758 L28.0221523,31.0331133 C27.9604531,31.0785703 27.8871875,31.1015977 27.8136406,31.1015977 C27.7531367,31.1015977 27.6924922,31.0859883 27.6378945,31.0544883 C27.516957,30.9846328 27.4488242,30.8498086 27.464293,30.7110117 L27.464293,30.7110117 L27.775707,27.9215742 C27.7810859,27.873375 27.7964141,27.826793 27.8206367,27.7847812 L27.8206367,27.7847812 L32.2447695,20.1220195 C32.4419258,19.7804766 32.7603711,19.5361406 33.1413242,19.4340469 Z M28.4148477,28.5338203 L28.2522148,29.9904141 L29.4323398,29.1212812 L28.4148477,28.5338203 Z M26.3518086,28.4296875 C26.5459414,28.4296875 26.7033711,28.587082 26.7033711,28.78125 C26.7033711,28.975418 26.5459414,29.1328125 26.3518086,29.1328125 L26.3518086,29.1328125 L21.3596211,29.1328125 C21.1654883,29.1328125 21.0080586,28.975418 21.0080586,28.78125 C21.0080586,28.587082 21.1654883,28.4296875 21.3596211,28.4296875 L21.3596211,28.4296875 Z M19.8577461,28.4296875 C19.9505586,28.4296875 20.0409102,28.4673047 20.1066172,28.5326953 C20.172043,28.5980859 20.2096602,28.6887891 20.2096602,28.78125 C20.2096602,28.8737109 20.1720078,28.9644141 20.1066172,29.0298047 C20.0412617,29.0951953 19.9505586,29.1328125 19.8577461,29.1328125 C19.76525,29.1328125 19.6745469,29.0951953 19.6091914,29.0298047 C19.5437656,28.9644141 19.5061836,28.8737109 19.5061836,28.78125 C19.5061836,28.6887891 19.5438008,28.5980859 19.6091914,28.5326953 C19.6749336,28.4673047 19.76525,28.4296875 19.8577461,28.4296875 Z M32.1556133,21.6827109 L28.6053594,27.8318906 L29.9449883,28.6053281 L33.4952422,22.4561484 L32.1556133,21.6827109 Z M26.3518086,26.4609375 C26.5459414,26.4609375 26.7033711,26.618332 26.7033711,26.8125 C26.7033711,27.006668 26.5459414,27.1640625 26.3518086,27.1640625 L26.3518086,27.1640625 L21.3596211,27.1640625 C21.1654883,27.1640625 21.0080586,27.006668 21.0080586,26.8125 C21.0080586,26.618332 21.1654883,26.4609375 21.3596211,26.4609375 L21.3596211,26.4609375 Z M19.8577461,26.4609375 C19.9505586,26.4609375 20.0409102,26.4985547 20.1066172,26.5639453 C20.172043,26.6293359 20.2096602,26.7200391 20.2096602,26.8125 C20.2096602,26.9049609 20.1720078,26.9956641 20.1066172,27.0610547 C20.0409102,27.1264453 19.9505586,27.1640625 19.8577461,27.1640625 C19.76525,27.1640625 19.6749336,27.1264453 19.6091914,27.0610547 C19.5437656,26.9956641 19.5061836,26.9049609 19.5061836,26.8125 C19.5061836,26.7200391 19.5438008,26.6293359 19.6091914,26.5639453 C19.6749336,26.4985547 19.76525,26.4609375 19.8577461,26.4609375 Z M19.8577461,24.4921875 C19.9505586,24.4921875 20.0412617,24.5298047 20.1066172,24.5951953 C20.172043,24.6605859 20.2096602,24.7512891 20.2096602,24.84375 C20.2096602,24.9362109 20.1720078,25.0269141 20.1066172,25.0923047 C20.0409102,25.1576953 19.9505586,25.1953125 19.8577461,25.1953125 C19.76525,25.1953125 19.6749336,25.1576953 19.6091914,25.0923047 C19.5437656,25.0269141 19.5061836,24.9362109 19.5061836,24.84375 C19.5061836,24.7512891 19.5438008,24.6605859 19.6091914,24.5951953 C19.6745469,24.5298047 19.76525,24.4921875 19.8577461,24.4921875 Z M26.3518086,24.4921875 C26.5459414,24.4921875 26.7033711,24.649582 26.7033711,24.84375 C26.7033711,25.037918 26.5459414,25.1953125 26.3518086,25.1953125 L26.3518086,25.1953125 L21.3596211,25.1953125 C21.1654883,25.1953125 21.0080586,25.037918 21.0080586,24.84375 C21.0080586,24.649582 21.1654883,24.4921875 21.3596211,24.4921875 L21.3596211,24.4921875 Z M24.4533711,16.8984375 C26.2368125,16.8984375 27.6877461,18.3493711 27.6877461,20.1328125 C27.6877461,21.0580195 27.2971602,21.8936133 26.672293,22.4836758 C26.6605859,22.4961563 26.6481406,22.5080391 26.6345352,22.518832 C26.0589922,23.0454023 25.293043,23.3671523 24.4533359,23.3671523 C23.6136289,23.3671523 22.8476797,23.0454375 22.2721367,22.518832 C22.2585313,22.5080391 22.2460859,22.4961914 22.2343789,22.4836758 L22.0944238,22.3432199 C21.551803,21.7645301 21.2189961,20.9868498 21.2189961,20.1328125 C21.2189961,18.3493711 22.6699297,16.8984375 24.4533711,16.8984375 Z M24.4533711,21.2578125 C23.8099766,21.2578125 23.2333789,21.6004805 22.9243906,22.1483906 C23.3495,22.4716875 23.8793047,22.6640625 24.4533711,22.6640625 C25.0274375,22.6640625 25.557207,22.4716875 25.9823516,22.1483906 C25.6733633,21.6004805 25.0967656,21.2578125 24.4533711,21.2578125 Z M33.9101914,20.1905039 C33.7313164,20.0872148 33.5229102,20.0597227 33.323293,20.1132305 C33.1237461,20.1667031 32.9569648,20.2946719 32.8536758,20.473582 L32.8536758,20.473582 L32.5071406,21.0738047 L33.8467695,21.8472422 L34.1933047,21.2470195 C34.2965937,21.0681094 34.3240156,20.859668 34.270543,20.6601211 C34.2170703,20.4605742 34.0891016,20.293793 33.9101914,20.1905039 Z M24.4533711,17.6015625 C23.0576328,17.6015625 21.9221211,18.7370742 21.9221211,20.1328125 C21.9221211,20.6941523 22.1060234,21.2131641 22.416418,21.6333867 C22.6756953,21.2488477 23.0350273,20.9497734 23.4522266,20.7651328 C23.2866406,20.5511367 23.1877461,20.2830703 23.1877461,19.9921875 L23.1877461,19.9921875 L23.1877461,19.7636719 C23.1877461,19.0657852 23.7554844,18.4980469 24.4533711,18.4980469 C25.1512578,18.4980469 25.7189961,19.0657852 25.7189961,19.7636719 L25.7189961,19.7636719 L25.7189961,19.9921875 C25.7189961,20.2830703 25.6201016,20.5511367 25.4545156,20.7651328 C25.8717148,20.9497734 26.2310469,21.2488477 26.4903242,21.6333867 C26.8007188,21.2131641 26.9846211,20.6941523 26.9846211,20.1328125 C26.9846211,18.7370742 25.8491094,17.6015625 24.4533711,17.6015625 Z M24.4533711,19.2011719 C24.1432227,19.2011719 23.8908711,19.4535234 23.8908711,19.7636719 L23.8908711,19.7636719 L23.8908711,19.9921875 C23.8908711,20.3023359 24.1432227,20.5546875 24.4533711,20.5546875 C24.7635195,20.5546875 25.0158711,20.3023359 25.0158711,19.9921875 L25.0158711,19.9921875 L25.0158711,19.7636719 C25.0158711,19.4535234 24.7635195,19.2011719 24.4533711,19.2011719 Z" id="Combined-Shape" stroke="#07A39D" stroke-width="0.2" fill="#07A39D" fill-rule="nonzero"></path>
            </g>
        </g>
    </g>
</svg>