<?xml version="1.0" encoding="UTF-8"?>
<svg width="48px" height="48px" viewBox="0 0 48 48" version="1.1" xmlns="http://www.w3.org/2000/svg" xmlns:xlink="http://www.w3.org/1999/xlink">
    <!-- Generator: sketchtool 64 (101010) - https://sketch.com -->
    <title>947E8A00-D2FD-438B-9354-F70B2B97D499</title>
    <desc>Created with sketchtool.</desc>
    <g id="Dashboard---AdminSide" stroke="none" stroke-width="1" fill="none" fill-rule="evenodd">
        <g id="AdminSide---Dashboard" transform="translate(-750.000000, -119.000000)">
            <g id="icon-blockEstimates" transform="translate(750.000000, 119.000000)">
                <circle id="Oval" fill="#E6F6F5" cx="24" cy="24" r="24"></circle>
                <g id="loan" transform="translate(17.000000, 15.000000)" fill="#07A39D" fill-rule="nonzero" stroke="#07A39D" stroke-width="0.2">
                    <path d="M13.4736842,-3.19744231e-14 C13.6674386,-3.19744231e-14 13.8245614,0.157087719 13.8245614,0.350877193 L13.8245614,0.350877193 L13.8245614,5.92992982 C13.9957544,5.90677193 14.1695789,5.89473684 14.3452632,5.89473684 L14.3452632,5.89473684 L14.6766667,5.89473684 L15.9789825,3.63901754 C16.0758596,3.47122807 16.2904211,3.4137193 16.4582807,3.51059649 L16.4582807,3.51059649 L17.7952982,4.28252632 C17.8758947,4.32905263 17.9346667,4.40568421 17.9587719,4.49557895 C17.9828772,4.58547368 17.9702456,4.68122807 17.9237193,4.76182456 L17.9237193,4.76182456 L17.2696491,5.89473684 L17.6198596,5.89473684 C17.813614,5.89473684 17.9707369,6.05182456 17.9707369,6.24561404 C17.9707369,6.43940351 17.813614,6.59649123 17.6198596,6.59649123 L17.6198596,6.59649123 L16.8644912,6.59649123 L15.3315439,9.25164912 C15.2947368,10.2654386 14.4590175,11.0789474 13.436386,11.0789474 L13.436386,11.0789474 L12.8398947,11.0789474 C12.5493333,11.0789474 12.3129474,11.3153333 12.3129474,11.6058947 C12.3129474,11.8964211 12.5493684,12.132807 12.8398947,12.132807 L12.8398947,12.132807 L14.0604211,12.132807 C15.0717544,12.132807 16.0405263,11.8209474 16.8619298,11.2309825 L16.8619298,11.2309825 L17.4093333,10.8378246 C17.566807,10.7247368 17.786,10.7607719 17.8990526,10.9181053 C18.0121053,11.0755088 17.9761404,11.2947368 17.8187719,11.4077895 L17.8187719,11.4077895 L17.2713684,11.8009474 C16.3298947,12.4771579 15.2195789,12.8345614 14.0604561,12.8345614 L14.0604561,12.8345614 L13.8245614,12.8345614 L13.8245614,17.6140351 C13.8245614,17.8078246 13.6674386,17.9649123 13.4736842,17.9649123 L13.4736842,17.9649123 L0.350877193,17.9649123 C0.157122807,17.9649123 -1.77635684e-14,17.8078246 -1.77635684e-14,17.6140351 L-1.77635684e-14,17.6140351 L-1.77635684e-14,0.350877193 C-1.77635684e-14,0.157087719 0.157122807,-3.19744231e-14 0.350877193,-3.19744231e-14 L0.350877193,-3.19744231e-14 Z M13.1228421,0.701754386 L0.701754386,0.701754386 L0.701754386,17.2631579 L13.1228421,17.2631579 L13.1228421,13.0772632 L13.0511228,13.2014737 C13.0266316,13.2438246 12.993614,13.2806316 12.9541053,13.3094737 L12.9541053,13.3094737 L11.413614,14.4338246 C11.3522807,14.4785965 11.279614,14.5012982 11.2067368,14.5012982 L11.2067368,14.5012982 L7.64775439,14.5012982 C7.454,14.5012982 7.29687719,14.3442105 7.29687719,14.1504211 C7.29687719,13.9566316 7.454,13.7995439 7.64775439,13.7995439 L7.64775439,13.7995439 L10.8914737,13.7995439 L11.0584561,12.2436491 C10.8672982,12.2221754 10.682807,12.1516491 10.5252632,12.0348421 C10.1666667,11.7690175 10.0046316,11.3173684 10.1124211,10.8842105 L10.1124211,10.8842105 L10.3575439,9.89912281 L3.13312281,9.89912281 C2.93936842,9.89912281 2.78224561,9.74203509 2.78224561,9.54824561 C2.78224561,9.35445614 2.93936842,9.19736842 3.13312281,9.19736842 L3.13312281,9.19736842 L10.5321754,9.19736842 L10.6316491,8.79750877 C10.8001404,8.12042105 11.1504912,7.50235088 11.6448421,7.01003509 C12.068,6.58863158 12.5725614,6.27835088 13.1228421,6.09347368 L13.1228421,6.09347368 L13.1228421,0.701754386 Z M6.06877193,13.7996842 C6.16105263,13.7996842 6.25157895,13.8368421 6.31684211,13.9024912 C6.38210526,13.9677544 6.41964912,14.0579298 6.41964912,14.1505614 C6.41964912,14.2428421 6.38207018,14.3333684 6.31684211,14.3986316 C6.25157895,14.4638947 6.16105263,14.5014386 6.06877193,14.5014386 C5.97649123,14.5014386 5.88596491,14.4638947 5.82070175,14.3986316 C5.7554386,14.3333684 5.71789474,14.2428421 5.71789474,14.1505614 C5.71789474,14.0579298 5.75547368,13.9677544 5.82070175,13.9024912 C5.88596491,13.8368772 5.97649123,13.7996842 6.06877193,13.7996842 Z M11.8066316,12.2693684 L11.7512281,12.3653333 L11.6402105,13.3996842 L12.4804561,12.786386 C12.2016491,12.696 11.9627719,12.5117895 11.8066316,12.2693684 L11.8066316,12.2693684 Z M8.92333333,11.1622807 C9.11708772,11.1622807 9.27421053,11.3193684 9.27421053,11.5131579 C9.27421053,11.7069474 9.11712281,11.8640351 8.92333333,11.8640351 L8.92333333,11.8640351 L5.00508772,11.8640351 C4.81133333,11.8640351 4.65421053,11.7069474 4.65421053,11.5131579 C4.65421053,11.3193684 4.81133333,11.1622807 5.00508772,11.1622807 L5.00508772,11.1622807 Z M14.2704211,6.59835088 C13.4661404,6.61715789 12.712,6.93764912 12.14,7.50729825 C11.7362807,7.90933333 11.4501754,8.41407018 11.3125965,8.96698246 L11.3125965,8.96698246 L10.7933684,11.0537193 C10.7542456,11.2108772 10.8130526,11.3746667 10.9431228,11.4711228 C11.0358947,11.5398947 11.1492982,11.5648421 11.2622807,11.5413684 C11.3753333,11.5178947 11.4693333,11.4499298 11.5270877,11.3499298 L11.5270877,11.3499298 L12.4356842,9.77621053 L12.4356842,9.77621053 L12.4358596,9.77596491 Z M16.4112982,4.29378947 L12.8990526,10.377193 L13.4364211,10.377193 C13.6141053,10.377193 13.7827018,10.3379298 13.9344211,10.2680702 L13.9344211,10.2680702 L17.1405965,4.71484211 L16.4112982,4.29378947 Z M9.33207018,7.23245614 C9.52582456,7.23245614 9.68294737,7.38954386 9.68294737,7.58333333 C9.68294737,7.77712281 9.52582456,7.93421053 9.33207018,7.93421053 L9.33207018,7.93421053 L4.59638596,7.93421053 C4.40263158,7.93421053 4.24550877,7.77712281 4.24550877,7.58333333 C4.24550877,7.38954386 4.40263158,7.23245614 4.59638596,7.23245614 L4.59638596,7.23245614 Z M6.8582807,1.89473684 C7.05203509,1.89473684 7.20915789,2.05182456 7.20915789,2.24561404 L7.20915789,2.24561404 L7.20915789,2.29438596 C7.67992982,2.43396491 8.02210526,2.84645614 8.02210526,3.33238596 C8.02210526,3.52617544 7.86498246,3.68326316 7.67122807,3.68326316 C7.47747368,3.68326316 7.32035088,3.52617544 7.32035088,3.33238596 C7.32035088,3.11905263 7.11308772,2.94547368 6.8582807,2.94547368 C6.60347368,2.94547368 6.39621053,3.11905263 6.39621053,3.33238596 C6.39621053,3.5457193 6.60347368,3.71929825 6.8582807,3.71929825 C7.5,3.71929825 8.02210526,4.20768421 8.02210526,4.80796491 C8.02210526,5.29392982 7.67992982,5.70642105 7.20915789,5.84596491 L7.20915789,5.84596491 L7.20915789,5.89473684 C7.20915789,6.08852632 7.05203509,6.24561404 6.8582807,6.24561404 C6.66452632,6.24561404 6.50740351,6.08852632 6.50740351,5.89473684 L6.50740351,5.89473684 L6.50740351,5.84596491 C6.03663158,5.70638596 5.69445614,5.29389474 5.69445614,4.80796491 C5.69445614,4.61417544 5.85157895,4.45708772 6.04533333,4.45708772 C6.23908772,4.45708772 6.39621053,4.61417544 6.39621053,4.80796491 L6.40366785,4.87742007 C6.44285597,5.0577284 6.63178558,5.19487719 6.8582807,5.19487719 C7.11308772,5.19487719 7.32035088,5.02129825 7.32035088,4.80796491 C7.32035088,4.59463158 7.11308772,4.42105263 6.8582807,4.42105263 C6.2165614,4.42105263 5.69445614,3.93266667 5.69445614,3.33238596 C5.69445614,2.84642105 6.03663158,2.43392982 6.50740351,2.29438596 L6.50740351,2.29438596 L6.50740351,2.24561404 C6.50740351,2.05182456 6.66452632,1.89473684 6.8582807,1.89473684 Z" id="Combined-Shape"></path>
                </g>
            </g>
        </g>
    </g>
</svg>