<?xml version="1.0" encoding="UTF-8"?>
<svg width="106px" height="106px" viewBox="0 0 106 106" version="1.1" xmlns="http://www.w3.org/2000/svg" xmlns:xlink="http://www.w3.org/1999/xlink">
    <!-- Generator: sketchtool 64 (101010) - https://sketch.com -->
    <title>2B158B9A-9B3C-458A-BFB8-45F77D4C0978</title>
    <desc>Created with sketchtool.</desc>
    <defs>
        <rect id="path-1" x="0" y="0" width="90" height="90" rx="3"></rect>
        <filter x="-14.4%" y="-12.2%" width="128.9%" height="128.9%" filterUnits="objectBoundingBox" id="filter-2">
            <feOffset dx="0" dy="2" in="SourceAlpha" result="shadowOffsetOuter1"></feOffset>
            <feGaussianBlur stdDeviation="4" in="shadowOffsetOuter1" result="shadowBlurOuter1"></feGaussianBlur>
            <feColorMatrix values="0 0 0 0 0   0 0 0 0 0   0 0 0 0 0  0 0 0 0.197443182 0" type="matrix" in="shadowBlurOuter1"></feColorMatrix>
        </filter>
    </defs>
    <g id="Desktop" stroke="none" stroke-width="1" fill="none" fill-rule="evenodd">
        <g id="WhyChooseUs_desktop" transform="translate(-1059.000000, -654.000000)">
            <g id="affordable" transform="translate(1067.000000, 660.000000)">
                <g id="button-solid-primary-copy-3">
                    <g id="Rectangle-Copy-4">
                        <use fill="black" fill-opacity="1" filter="url(#filter-2)" xlink:href="#path-1"></use>
                        <use fill="#07A39D" fill-rule="evenodd" xlink:href="#path-1"></use>
                    </g>
                    <text id="Request-Estimate" font-family="Poppins-Bold, Poppins" font-size="13" font-weight="bold"></text>
                </g>
                <g id="piggy-bank" transform="translate(22.000000, 20.000000)" fill="#FFFFFF" fill-rule="nonzero">
                    <path d="M11.71875,11.9140625 C13.8132813,11.9140625 15.8069336,12.8123047 17.1885742,14.3783203 C17.4494141,14.6740234 17.8327148,14.8631836 18.2400391,14.8631836 L18.2400391,14.8631836 L28.0273438,14.84375 C35.3664062,14.84375 41.574707,19.7758789 43.5129883,26.4995117 C44.5697266,26.7161133 45.3582031,26.3443359 45.7691406,26.06875 C46.5838867,25.5223633 47.0703125,24.6118164 47.0703125,23.6328125 L47.0703125,23.6328125 L47.0703125,22.1679688 C47.0703125,21.3589844 47.7261719,20.703125 48.5351562,20.703125 C49.3441406,20.703125 50,21.3589844 50,22.1679688 L50,22.1679688 L50,23.6328125 C50,25.5904297 49.0283203,27.4106445 47.4007812,28.5021484 C46.4195312,29.1600586 45.2991211,29.4939453 44.1484375,29.4939453 C44.1234375,29.4939453 44.0983398,29.4923828 44.0733398,29.4920898 C44.1170898,29.9748047 44.140625,30.4631836 44.140625,30.9571289 C44.140625,32.7902344 43.8347656,34.5895508 43.2314453,36.3048828 C42.4629883,38.4901367 41.1986328,40.5268555 39.5750977,42.1949219 C38.7407227,43.0520508 38.28125,44.1496094 38.28125,45.2853516 L38.28125,45.2853516 L38.28125,47.5019531 C38.28125,48.8793945 37.1605469,50 35.7832031,50 L35.7832031,50 L30.5253906,50 C29.1480469,50 28.0273438,48.8793945 28.0273438,47.5019531 L28.0273438,47.5019531 L28.0273438,47.0703125 L19.0429688,47.0703125 L19.0429688,47.5019531 C19.0429688,48.8793945 17.9223633,50 16.5449219,50 L16.5449219,50 L11.2871094,50 C9.90966797,50 8.7890625,48.8793945 8.7890625,47.5019531 L8.7890625,47.5019531 L8.7890625,44.0478516 C8.7890625,43.4941406 8.42763672,43.0832031 8.21220703,42.8875 C6.61611328,41.437793 5.34960938,39.7222656 4.44306641,37.7832031 L4.44306641,37.7832031 L1.85957031,35.9587891 C0.695117188,35.1365234 0,33.7946289 0,32.3691406 L0,32.3691406 L0,28.0274414 C0,25.6042969 1.97138672,23.6329102 4.39453125,23.6329102 L4.39453125,23.6329102 L4.68642578,23.6329102 C5.39658203,22.2404297 6.30009766,20.9679687 7.38408203,19.8339844 L7.38408203,19.8339844 L5.90068359,13.7246094 C5.79472656,13.2878906 5.89492188,12.8267578 6.17265625,12.4735352 C6.45039062,12.1203125 6.87490234,11.9140625 7.32421875,11.9140625 L7.32421875,11.9140625 Z M11.71875,14.84375 L9.18730469,14.84375 L10.419043,19.9169922 C10.5477539,20.4067383 10.4167969,20.940625 10.0490234,21.315625 C10.0351562,21.3297852 10.0209961,21.3436523 10.0066406,21.3572266 L10.0066406,21.3572266 L9.99082031,21.372168 C8.69091797,22.600293 7.6703125,24.049707 6.95722656,25.6805664 L6.95722656,25.6805664 C6.95527344,25.6852539 6.95478516,25.6862305 6.95429687,25.6873047 C6.79208984,26.05625 6.47490234,26.3259766 6.26152344,26.4113281 C5.92177734,26.6024414 5.5671875,26.5625 4.39453125,26.5625 C3.58681641,26.5625 2.9296875,27.2196289 2.9296875,28.0273438 L2.9296875,28.0273438 L2.9296875,32.369043 C2.9296875,32.8442383 3.16142578,33.2915039 3.54951172,33.5657227 L3.54951172,33.5657227 L6.45839844,35.6199219 C6.67675781,35.7741211 6.84873047,35.9850586 6.95576172,36.2299805 C7.69423828,37.9203125 8.80986328,39.4725586 10.1820312,40.7189453 C11.1729492,41.6189453 11.71875,42.8012695 11.71875,44.0478516 L11.71875,44.0478516 L11.71875,47.0703125 L16.1132812,47.0703125 L16.1132812,47.0703125 L16.1132812,42.6757812 C16.1132812,41.8667969 16.7691406,41.2109375 17.578125,41.2109375 C18.3871094,41.2109375 19.0429688,41.8667969 19.0429688,42.6757812 L19.0429688,42.6757812 L19.0429688,44.140625 L28.0273438,44.140625 L28.0273438,42.6757812 C28.0273438,41.8667969 28.6832031,41.2109375 29.4921875,41.2109375 C30.3011719,41.2109375 30.9570312,41.8667969 30.9570312,42.6757812 L30.9570312,42.6757812 L30.9570312,47.0703125 L35.3515625,47.0703125 L35.3515625,45.2853516 C35.3515625,43.3819336 36.105957,41.5586914 37.4756836,40.1514648 C38.8047852,38.7860352 39.8393555,37.1198242 40.4677734,35.3329102 C40.9608398,33.9305664 41.2109375,32.4583008 41.2109375,30.9570312 C41.2109375,23.6875977 35.2967773,17.7539062 28.0273438,17.7539062 L28.0273438,17.7539062 L18.2399414,17.7733398 C16.9923828,17.7733398 15.8083984,17.2422852 14.9916016,16.3165039 C14.165918,15.3805664 12.9730469,14.84375 11.71875,14.84375 L11.71875,14.84375 Z M10.2539062,25.0976562 C11.0629171,25.0976562 11.71875,25.7534891 11.71875,26.5625 C11.71875,27.3715109 11.0629171,28.0273438 10.2539062,28.0273438 C9.44489539,28.0273438 8.7890625,27.3715109 8.7890625,26.5625 C8.7890625,25.7534891 9.44489539,25.0976562 10.2539062,25.0976562 Z M28.0273437,20.703125 C28.8363281,20.703125 29.4921875,21.3589844 29.4921875,22.1679688 C29.4921875,22.9769531 28.8363281,23.6328125 28.0273437,23.6328125 L28.0273437,23.6328125 L21.1701172,23.6328125 C20.3611328,23.6328125 19.7052734,22.9769531 19.7052734,22.1679688 C19.7052734,21.3589844 20.3611328,20.703125 21.1701172,20.703125 L21.1701172,20.703125 Z M26.5625,0 C29.7933594,0 32.421875,2.62851562 32.421875,5.859375 C32.421875,9.09023438 29.7933594,11.71875 26.5625,11.71875 C23.3316406,11.71875 20.703125,9.09023438 20.703125,5.859375 C20.703125,2.62851562 23.3316406,0 26.5625,0 Z M26.5625,2.9296875 C24.9470703,2.9296875 23.6328125,4.24394531 23.6328125,5.859375 C23.6328125,7.47480469 24.9470703,8.7890625 26.5625,8.7890625 C28.1779297,8.7890625 29.4921875,7.47480469 29.4921875,5.859375 C29.4921875,4.24394531 28.1779297,2.9296875 26.5625,2.9296875 Z" id="Combined-Shape"></path>
                </g>
            </g>
        </g>
    </g>
</svg>