<?xml version="1.0" encoding="UTF-8"?>
<svg width="106px" height="106px" viewBox="0 0 106 106" version="1.1" xmlns="http://www.w3.org/2000/svg" xmlns:xlink="http://www.w3.org/1999/xlink">
    <!-- Generator: sketchtool 64 (101010) - https://sketch.com -->
    <title>5D6D11AA-C751-4928-96C5-B5026757C207</title>
    <desc>Created with sketchtool.</desc>
    <defs>
        <rect id="path-1" x="0" y="0" width="90" height="90" rx="3"></rect>
        <filter x="-14.4%" y="-12.2%" width="128.9%" height="128.9%" filterUnits="objectBoundingBox" id="filter-2">
            <feOffset dx="0" dy="2" in="SourceAlpha" result="shadowOffsetOuter1"></feOffset>
            <feGaussianBlur stdDeviation="4" in="shadowOffsetOuter1" result="shadowBlurOuter1"></feGaussianBlur>
            <feColorMatrix values="0 0 0 0 0   0 0 0 0 0   0 0 0 0 0  0 0 0 0.197443182 0" type="matrix" in="shadowBlurOuter1"></feColorMatrix>
        </filter>
    </defs>
    <g id="Desktop" stroke="none" stroke-width="1" fill="none" fill-rule="evenodd">
        <g id="WhyChooseUs_desktop" transform="translate(-667.000000, -654.000000)">
            <g id="efficient" transform="translate(675.000000, 660.000000)">
                <g id="button-solid-primary-copy-2">
                    <g id="Rectangle-Copy-4">
                        <use fill="black" fill-opacity="1" filter="url(#filter-2)" xlink:href="#path-1"></use>
                        <use fill="#07A39D" fill-rule="evenodd" xlink:href="#path-1"></use>
                    </g>
                    <text id="Request-Estimate" font-family="Poppins-Bold, Poppins" font-size="13" font-weight="bold"></text>
                </g>
                <g id="clock" transform="translate(25.000000, 20.000000)" fill="#FFFFFF" fill-rule="nonzero">
                    <path d="M31.7382812,0 C33.6231231,0 35.15625,1.53312686 35.15625,3.41796875 L35.15625,3.41796875 L35.15625,23.7148285 C43.0019379,22.8431701 49.8046875,29.0058136 49.8046875,36.8164062 C49.8046875,44.0856934 43.8903809,50 36.6210938,50 C32.0178985,50 27.9590606,47.6280213 25.6004334,44.0429688 L25.6004334,44.0429688 L3.41796875,44.0429688 C1.53312686,44.0429688 0,42.5098419 0,40.625 L0,40.625 L0,3.41796875 C0,1.53312686 1.53312686,0 3.41796875,0 L3.41796875,0 Z M36.6210938,26.5625 C30.9669494,26.5625 26.3671875,31.1622619 26.3671875,36.8164062 C26.3671875,42.4705506 30.9669494,47.0703125 36.6210938,47.0703125 C42.2752381,47.0703125 46.875,42.4705506 46.875,36.8164062 C46.875,31.1622619 42.2752381,26.5625 36.6210938,26.5625 Z M31.7382812,2.9296875 L3.41796875,2.9296875 C3.14865117,2.9296875 2.9296875,3.14865117 2.9296875,3.41796875 L2.9296875,3.41796875 L2.9296875,40.625 C2.9296875,40.8943176 3.14865117,41.1132812 3.41796875,41.1132812 L3.41796875,41.1132812 L24.156952,41.1132812 C23.5118866,39.2467499 23.2936859,37.2493744 23.5305786,35.2539062 L23.5305786,35.2539062 L13.1835938,35.2539062 C12.3744965,35.2539062 11.71875,34.5981598 11.71875,33.7890625 C11.71875,32.9799652 12.3744965,32.3242188 13.1835938,32.3242188 L13.1835938,32.3242188 L24.2259979,32.3242188 C24.6055604,31.2801361 25.1136779,30.2970887 25.730896,29.3945313 L25.730896,29.3945313 L13.1835938,29.3945313 C12.3744965,29.3945313 11.71875,28.7387848 11.71875,27.9296875 C11.71875,27.1205902 12.3744965,26.4648437 13.1835938,26.4648437 C28.6845093,26.4648437 28.0170697,26.4241774 28.3274104,26.5521628 L28.3477783,26.5602111 C29.4979096,25.6305694 30.8067322,24.8905182 32.2265625,24.3869781 L32.2265625,24.3869781 L32.2265625,3.41796875 C32.2265625,3.14865117 32.0075988,2.9296875 31.7382812,2.9296875 L31.7382812,2.9296875 Z M36.6210938,29.3945312 C37.430191,29.3945312 38.0859375,30.0502777 38.0859375,30.859375 L38.0859375,30.859375 L38.0859375,36.71875 C38.0859375,37.5278473 37.430191,38.1835938 36.6210938,38.1835938 L36.6210938,38.1835938 L32.2265625,38.1835938 C31.4174652,38.1835938 30.7617188,37.5278473 30.7617188,36.71875 C30.7617188,35.9096527 31.4174652,35.2539062 32.2265625,35.2539062 L32.2265625,35.2539062 L35.15625,35.2539062 L35.15625,30.859375 C35.15625,30.0502777 35.8119965,29.3945312 36.6210938,29.3945312 Z M7.32421875,32.3242188 C8.13331602,32.3242188 8.7890625,32.9799652 8.7890625,33.7890625 C8.7890625,34.5981598 8.13331602,35.2539062 7.32421875,35.2539062 C6.51512148,35.2539062 5.859375,34.5981598 5.859375,33.7890625 C5.859375,32.9799652 6.51512148,32.3242188 7.32421875,32.3242188 Z M7.32421875,26.4648438 C8.13331602,26.4648438 8.7890625,27.1205902 8.7890625,27.9296875 C8.7890625,28.7387848 8.13331602,29.3945312 7.32421875,29.3945312 C6.51512148,29.3945312 5.859375,28.7387848 5.859375,27.9296875 C5.859375,27.1205902 6.51512148,26.4648438 7.32421875,26.4648438 Z M27.8320312,20.6054688 C28.6411285,20.6054688 29.296875,21.2612152 29.296875,22.0703125 C29.296875,22.8794098 28.6411285,23.5351562 27.8320312,23.5351562 L27.8320312,23.5351562 L13.1835938,23.5351562 C12.3744965,23.5351562 11.71875,22.8794098 11.71875,22.0703125 C11.71875,21.2612152 12.3744965,20.6054688 13.1835938,20.6054688 L13.1835938,20.6054688 Z M7.32421875,20.6054688 C8.13331602,20.6054688 8.7890625,21.2612152 8.7890625,22.0703125 C8.7890625,22.8794098 8.13331602,23.5351562 7.32421875,23.5351562 C6.51512148,23.5351562 5.859375,22.8794098 5.859375,22.0703125 C5.859375,21.2612152 6.51512148,20.6054688 7.32421875,20.6054688 Z M27.8320312,14.7460938 C28.6411285,14.7460938 29.296875,15.4018402 29.296875,16.2109375 C29.296875,17.0200348 28.6411285,17.6757812 27.8320312,17.6757812 L27.8320312,17.6757812 L13.1835938,17.6757812 C12.3744965,17.6757812 11.71875,17.0200348 11.71875,16.2109375 C11.71875,15.4018402 12.3744965,14.7460938 13.1835938,14.7460938 L13.1835938,14.7460938 Z M7.32421875,14.7460938 C8.13331602,14.7460938 8.7890625,15.4018402 8.7890625,16.2109375 C8.7890625,17.0200348 8.13331602,17.6757812 7.32421875,17.6757812 C6.51512148,17.6757812 5.859375,17.0200348 5.859375,16.2109375 C5.859375,15.4018402 6.51512148,14.7460938 7.32421875,14.7460938 Z M27.8320312,8.88671875 C28.6411285,8.88671875 29.296875,9.54246523 29.296875,10.3515625 C29.296875,11.1606598 28.6411285,11.8164062 27.8320312,11.8164062 L27.8320312,11.8164062 L13.1835938,11.8164062 C12.3744965,11.8164062 11.71875,11.1606598 11.71875,10.3515625 C11.71875,9.54246523 12.3744965,8.88671875 13.1835938,8.88671875 L13.1835938,8.88671875 Z M7.32421875,8.88671875 C8.13331602,8.88671875 8.7890625,9.54246523 8.7890625,10.3515625 C8.7890625,11.1606598 8.13331602,11.8164062 7.32421875,11.8164062 C6.51512148,11.8164062 5.859375,11.1606598 5.859375,10.3515625 C5.859375,9.54246523 6.51512148,8.88671875 7.32421875,8.88671875 Z" id="Combined-Shape"></path>
                </g>
            </g>
        </g>
    </g>
</svg>