<?xml version="1.0" encoding="UTF-8"?>
<svg width="106px" height="106px" viewBox="0 0 106 106" version="1.1" xmlns="http://www.w3.org/2000/svg" xmlns:xlink="http://www.w3.org/1999/xlink">
    <!-- Generator: sketchtool 64 (101010) - https://sketch.com -->
    <title>AC418666-D220-4910-8610-7A6B1922A0AE</title>
    <desc>Created with sketchtool.</desc>
    <defs>
        <rect id="path-1" x="0" y="0" width="90" height="90" rx="3"></rect>
        <filter x="-14.4%" y="-12.2%" width="128.9%" height="128.9%" filterUnits="objectBoundingBox" id="filter-2">
            <feOffset dx="0" dy="2" in="SourceAlpha" result="shadowOffsetOuter1"></feOffset>
            <feGaussianBlur stdDeviation="4" in="shadowOffsetOuter1" result="shadowBlurOuter1"></feGaussianBlur>
            <feColorMatrix values="0 0 0 0 0   0 0 0 0 0   0 0 0 0 0  0 0 0 0.197443182 0" type="matrix" in="shadowBlurOuter1"></feColorMatrix>
        </filter>
    </defs>
    <g id="Desktop" stroke="none" stroke-width="1" fill="none" fill-rule="evenodd">
        <g id="WhyChooseUs_desktop" transform="translate(-275.000000, -654.000000)">
            <g id="quality" transform="translate(283.000000, 660.000000)">
                <g id="button-solid-primary-copy">
                    <g id="Rectangle-Copy-4">
                        <use fill="black" fill-opacity="1" filter="url(#filter-2)" xlink:href="#path-1"></use>
                        <use fill="#07A39D" fill-rule="evenodd" xlink:href="#path-1"></use>
                    </g>
                    <text id="Request-Estimate" font-family="Poppins-Bold, Poppins" font-size="13" font-weight="bold"></text>
                </g>
                <g id="diamond" transform="translate(23.000000, 20.000000)" fill="#FFFFFF" fill-rule="nonzero">
                    <path d="M36.71875,11.8164062 C37.3473633,11.8164062 37.7456055,12.128125 38.0292969,12.6259766 L38.0292969,12.6259766 L43.8886719,24.3447266 C44.1616211,24.9239258 44.0646484,25.5022461 43.6826172,25.9619141 L43.6826172,25.9619141 L23.1748047,49.4970703 C22.8964844,49.8164062 22.4941406,50 22.0703125,50 C21.6464844,50 21.2441406,49.8164062 20.9658203,49.4970703 L20.9658203,49.4970703 L0.458007812,25.9619141 C0.0735351562,25.4999023 -0.0193359375,24.9208984 0.251953125,24.3447266 L0.251953125,24.3447266 L6.11132812,12.6259766 C6.39980469,12.1203125 6.809375,11.8164062 7.421875,11.8164062 L7.421875,11.8164062 Z M12.3134766,26.4648438 L4.78222656,26.4648438 L19.5351562,43.3964844 L12.3134766,26.4648438 Z M39.3583984,26.4648438 L31.8271484,26.4648438 L24.6054687,43.3964844 L39.3583984,26.4648438 Z M28.6416016,26.4648438 L15.4990234,26.4648438 L22.0703125,41.8720703 L28.6416016,26.4648438 Z M22.0703125,15.7226562 L16.2109375,23.5351562 L27.9296875,23.5351562 L22.0703125,15.7226562 Z M7.421875,16.5566406 L3.93261719,23.5351562 L10.9111328,23.5351562 L7.421875,16.5566406 Z M36.71875,16.5566406 L33.2294922,23.5351562 L40.2080078,23.5351562 L36.71875,16.5566406 Z M34.3486328,14.7460938 L25,14.7460938 L30.609375,22.2246094 L34.3486328,14.7460938 Z M19.140625,14.7460938 L9.79199219,14.7460938 L13.53125,22.2246094 L19.140625,14.7460938 Z M11.7123047,4.38808594 C12.284375,3.81601563 13.2119141,3.81601563 13.7838867,4.38808594 L13.7838867,4.38808594 L15.8554687,6.45966797 C16.4275391,7.03173828 16.4275391,7.95917969 15.8554687,8.53125 C15.2834961,9.10341797 14.3558594,9.10332031 13.7838867,8.53125 L13.7838867,8.53125 L11.7123047,6.45966797 C11.1402344,5.88759766 11.1402344,4.96015625 11.7123047,4.38808594 Z M30.3566406,4.38808594 C30.9287109,3.81601562 31.85625,3.81601562 32.4282227,4.38808594 C33.000293,4.96015625 33.000293,5.88759766 32.4282227,6.45966797 L32.4282227,6.45966797 L30.3566406,8.53125 C29.784668,9.10341797 28.8570312,9.10332031 28.2850586,8.53125 C27.7129883,7.95917969 27.7129883,7.03173828 28.2850586,6.45966797 L28.2850586,6.45966797 Z M22.0703125,0 C22.8792969,0 23.5351562,0.655859375 23.5351562,1.46484375 L23.5351562,1.46484375 L23.5351562,4.4921875 C23.5351562,5.30117187 22.8792969,5.95703125 22.0703125,5.95703125 C21.2613281,5.95703125 20.6054687,5.30117187 20.6054687,4.4921875 L20.6054687,4.4921875 L20.6054687,1.46484375 C20.6054687,0.655859375 21.2613281,0 22.0703125,0 Z" id="Combined-Shape"></path>
                </g>
            </g>
        </g>
    </g>
</svg>