<?xml version="1.0" encoding="UTF-8"?>
<svg width="100px" height="100px" viewBox="0 0 100 100" version="1.1" xmlns="http://www.w3.org/2000/svg" xmlns:xlink="http://www.w3.org/1999/xlink">
    <!-- Generator: Sketch 64 (93537) - https://sketch.com -->
    <title>icon-maintenance</title>
    <desc>Created with Sketch.</desc>
    <g id="Desktop" stroke="none" stroke-width="1" fill="none" fill-rule="evenodd">
        <g id="Services_paversVsConcrete_desktop" transform="translate(-434.000000, -1248.000000)">
            <g id="icon-maintenance" transform="translate(434.000000, 1248.000000)">
                <rect id="Rectangle-Copy-2" fill="#07A39D" x="0" y="0" width="100" height="100" rx="3"></rect>
                <g id="parquet" transform="translate(25.000000, 25.000000)" fill="#FFFFFF" fill-rule="nonzero" stroke="#07A39D" stroke-width="2">
                    <path d="M48.046875,0 C46.6950195,0 3.10234375,0 1.953125,0 C0.874414063,0 0,0.874414063 0,1.953125 L0,48.046875 C0,49.1255859 0.874414063,50 1.953125,50 L48.046875,50 C49.1255859,50 50,49.1255859 50,48.046875 C50,46.6950195 50,3.10234375 50,1.953125 C50,0.874414063 49.1255859,0 48.046875,0 Z M3.90625,3.90625 L11.5234375,3.90625 L11.5234375,23.046875 L3.90625,23.046875 L3.90625,3.90625 Z M23.046875,46.09375 L3.90625,46.09375 L3.90625,38.4765625 L23.046875,38.4765625 L23.046875,46.09375 Z M23.046875,34.5703125 L3.90625,34.5703125 L3.90625,26.953125 L23.046875,26.953125 L23.046875,34.5703125 Z M23.046875,23.046875 L15.4296875,23.046875 L15.4296875,3.90625 L23.046875,3.90625 L23.046875,23.046875 Z M34.5703125,46.09375 L26.953125,46.09375 C26.953125,45.0303711 26.953125,28.0165039 26.953125,26.953125 L34.5703125,26.953125 L34.5703125,46.09375 Z M46.09375,46.09375 L38.4765625,46.09375 L38.4765625,26.953125 L46.09375,26.953125 L46.09375,46.09375 Z M46.09375,23.046875 C45.0303711,23.046875 28.0165039,23.046875 26.953125,23.046875 L26.953125,15.4296875 L46.09375,15.4296875 L46.09375,23.046875 Z M46.09375,11.5234375 L26.953125,11.5234375 L26.953125,3.90625 L46.09375,3.90625 L46.09375,11.5234375 Z" id="Shape"></path>
                </g>
            </g>
        </g>
    </g>
</svg>