<?xml version="1.0" encoding="UTF-8"?>
<svg width="100px" height="100px" viewBox="0 0 100 100" version="1.1" xmlns="http://www.w3.org/2000/svg" xmlns:xlink="http://www.w3.org/1999/xlink">
    <!-- Generator: Sketch 64 (93537) - https://sketch.com -->
    <title>icon-crack</title>
    <desc>Created with Sketch.</desc>
    <g id="Desktop" stroke="none" stroke-width="1" fill="none" fill-rule="evenodd">
        <g id="Services_paversVsConcrete_desktop" transform="translate(-434.000000, -786.000000)">
            <g id="icon-crack" transform="translate(434.000000, 786.000000)">
                <rect id="Rectangle" fill="#07A39D" x="0" y="0" width="100" height="100" rx="3"></rect>
                <g id="crack" transform="translate(28.000000, 25.000000)">
                    <path d="M40.0148498,3.20925594 C40.4236328,3.02212215 40.9073974,3.15514827 41.1630127,3.52456355 C41.4187194,3.89425349 41.3723938,4.39394832 41.0532409,4.71026302 L41.0532409,4.71026302 L31.6346618,14.0437896 L38.753894,14.0395782 C38.7540771,14.0395782 38.7542602,14.0395782 38.7544433,14.0395782 L38.870416,14.0468296 C39.2134787,14.0899688 39.5081237,14.3222473 39.6269409,14.653897 C39.7589599,15.0224884 39.6451599,15.4343841 39.3424865,15.6828582 L39.3424865,15.6828582 L24.950946,27.4970977 L34.0783874,27.5098236 C34.0830566,27.5098236 34.0868103,27.5104644 34.0913879,27.510556 C34.1114379,27.5109222 34.1313964,27.5121124 34.1513549,27.5137603 C34.1584961,27.5144012 34.1660034,27.5147674 34.1728698,27.5155914 C34.447528,27.5443389 34.7067138,27.6942108 34.8640014,27.9468963 C35.1345398,28.3814971 35.0015136,28.9530609 34.5670044,29.2235076 L34.5670044,29.2235076 L1.41658321,49.8599517 C1.26524654,49.9541595 1.09550777,50.0000274 0.927142293,50.0000274 C0.678851277,50.0000274 0.433123738,49.900418 0.252764852,49.7092559 C-0.0498169356,49.3885467 -0.0846985274,48.8990142 0.169543416,48.5387542 L0.169543416,48.5387542 L10.9624206,33.2446868 L2.22655025,33.2446868 C1.82326046,33.2446868 1.46629635,32.9839447 1.34361568,32.5997894 C1.22093502,32.2156341 1.36073604,31.796231 1.68941036,31.5625885 L1.68941036,31.5625885 L19.4628173,18.925473 L9.95213619,18.925473 C9.51625362,18.925473 9.13933101,18.6218841 9.04649654,18.1961639 C8.95357052,17.7703521 9.16990963,17.3373992 9.56605831,17.1559417 L9.56605831,17.1559417 Z M11.8239318,35.2388885 L4.3240234,45.8666961 L11.8239318,41.1979644 L11.8239318,35.2388885 Z M21.4389831,19.7945831 L18.0353271,22.2146881 L18.0353271,28.9521453 C18.0353271,29.4641082 17.6203186,29.8790252 17.1084472,29.8790252 C16.5965759,29.8790252 16.1815673,29.4640167 16.1815673,28.9521453 L16.1815673,28.9521453 L16.1815673,23.5326812 L5.12950435,31.3910186 L12.7506286,31.3910186 C12.7901794,31.3910186 12.8287231,31.394223 12.8669006,31.3990753 L12.8669006,31.3990753 L12.8963806,31.4036529 C12.9275085,31.4085968 12.9579956,31.4150054 12.9879333,31.4229705 C12.9953491,31.4248931 13.0027649,31.4265411 13.0100891,31.4286468 C13.0474426,31.4395416 13.0839721,31.452359 13.1192199,31.4676483 C13.1224243,31.4691131 13.1255371,31.4708526 13.1286499,31.4722259 C13.1599609,31.4862335 13.1902649,31.5021637 13.2197448,31.5194671 C13.227893,31.5242279 13.2359497,31.5290802 13.2439148,31.5341156 C13.272113,31.5519683 13.2993042,31.5709198 13.3253051,31.5915191 C13.3291503,31.5945404 13.3330871,31.5971954 13.3369323,31.6002166 C13.3655883,31.6235626 13.3924133,31.6490142 13.4180481,31.6756561 C13.4250976,31.6829803 13.431781,31.6906707 13.4386474,31.6982696 C13.458789,31.7206085 13.477832,31.7438629 13.4956848,31.7680328 L13.4956848,31.7680328 L13.5111572,31.7887237 C13.5331298,31.8201263 13.5531799,31.8529022 13.5711242,31.8870513 L13.5711242,31.8870513 L13.5763771,31.8974082 L13.5763771,31.8974082 C13.5939209,31.933377 13.607196,31.9643219 13.6190063,31.9959991 L13.6190063,31.9959991 L13.6277038,32.0198028 C13.6518737,32.0909393 13.6676208,32.1656463 13.6738464,32.243283 L13.6738464,32.243283 L13.6755859,32.2773407 C13.6761352,32.2908905 13.6776001,32.3043487 13.6776001,32.3180816 L13.6776001,32.3180816 L13.6776001,40.0440338 L21.4389831,35.2125213 L21.4389831,19.7945831 Z M23.2926513,29.3484771 L23.2926513,34.0584991 L30.8419067,29.3590057 L23.2926513,29.3484771 Z M17.1084472,31.3913848 C18.3031189,31.3913848 18.3011962,33.2450531 17.1084472,33.2450531 C15.9137756,33.2450531 15.9156982,31.3913848 17.1084472,31.3913848 Z M36.0397216,7.06893611 L14.2011901,17.0719879 L22.3656799,17.0719879 C22.394519,17.0719879 22.423175,17.0738189 22.4515564,17.0763824 C22.4613525,17.0772979 22.4707824,17.0786712 22.4803955,17.0798614 C22.4988891,17.0821502 22.5172912,17.0849884 22.5354187,17.0882843 C22.5464965,17.09039 22.5575744,17.0926788 22.5684692,17.0950592 L22.5684692,17.0950592 L22.6183654,17.1078765 L22.6183654,17.1078765 L22.6501342,17.1170318 C22.6720153,17.1241729 22.6935302,17.1320465 22.7146789,17.1406524 C22.7250244,17.1449554 22.7352783,17.1494415 22.7454406,17.1541107 C22.7632019,17.1620758 22.7808715,17.1703155 22.7980835,17.1793792 L22.7980835,17.1793792 L22.8265564,17.1954925 C22.8412048,17.2040069 22.8556701,17.2127044 22.8698608,17.2218597 C22.8789245,17.2276275 22.8877136,17.2334869 22.8964111,17.2396209 C22.9115173,17.2501495 22.9260742,17.2611358 22.9405395,17.2725799 C22.947406,17.2780731 22.954364,17.2832 22.9611389,17.2888763 C23.0028869,17.3238494 23.0417053,17.3625762 23.0769531,17.4047821 C23.0818969,17.4106414 23.0864746,17.416867 23.0913269,17.4230011 C23.1035034,17.4381988 23.1153137,17.4537628 23.1264831,17.4698761 C23.1322509,17.4780242 23.1376525,17.4863555 23.1431457,17.4947784 C23.1526672,17.5093353 23.1616394,17.5242584 23.1702453,17.5393646 C23.1757385,17.5488861 23.1812316,17.5584991 23.1863586,17.5682037 C23.1942321,17.5831268 23.2013732,17.5984161 23.2084228,17.6138885 C23.2130004,17.6238678 23.2179443,17.633847 23.2222473,17.6441009 C23.232135,17.6678131 23.2411071,17.6921661 23.2489807,17.7168853 C23.2490722,17.7170684 23.2490722,17.7173431 23.2491638,17.7176178 L23.253833,17.7339027 L23.253833,17.7339027 L23.2582275,17.7503936 C23.2628051,17.7668731 23.2673828,17.7833526 23.2709533,17.7998321 C23.2734253,17.8107269 23.2753479,17.8218963 23.2772705,17.8329742 C23.2804748,17.8510101 23.2833129,17.8691375 23.2855102,17.887265 C23.2867004,17.896878 23.287799,17.9065826 23.288623,17.9162872 C23.2907287,17.9398162 23.2919189,17.9633453 23.2921936,17.9867828 L23.2921936,17.9867828 L23.2927429,26.4604461 L28.4548523,22.2227447 L28.4548523,14.9720428 C28.4548523,14.9609649 28.456134,14.9501617 28.4565002,14.9391754 C28.456958,14.9283721 28.4574157,14.9175689 28.4581482,14.9067657 C28.463916,14.8240936 28.480487,14.7445343 28.506488,14.6691864 C28.5090515,14.6614959 28.5119812,14.6539886 28.5148193,14.6463897 C28.5287353,14.6089447 28.5445739,14.5724151 28.5631591,14.537442 C28.5638,14.5361602 28.5642578,14.5348785 28.5648986,14.5336883 C28.5843994,14.4976165 28.6066467,14.4634674 28.6304504,14.4305084 C28.635852,14.4228179 28.6415283,14.4153106 28.6473877,14.4078033 C28.6724731,14.3753021 28.6989318,14.3438995 28.7280456,14.3149688 L28.7280456,14.3149688 L28.7291442,14.3136871 L36.0397216,7.06893611 Z M36.1628601,15.8948944 L30.3084289,15.8983734 L30.3084289,20.7009552 L36.1628601,15.8948944 Z" id="Combined-Shape" fill="#FFFFFF" fill-rule="nonzero" transform="translate(20.663832, 26.562514) scale(-1, 1) translate(-20.663832, -26.562514) "></path>
                    <g id="Group" transform="translate(29.687500, 0.000000)">
                        <path d="M7.03125,1.51909722 L7.03125,13.3246528 C7.03125,13.7321545 7.38102754,14.0625 7.8125,14.0625 C8.24397246,14.0625 8.59375,13.7321545 8.59375,13.3246528 L8.59375,1.51909722 C8.59375,1.11159545 8.24397246,0.78125 7.8125,0.78125 C7.38102754,0.78125 7.03125,1.11159545 7.03125,1.51909722 Z" id="Mask" fill="#FFFFFF" fill-rule="nonzero" transform="translate(7.812500, 7.421875) rotate(-45.000000) translate(-7.812500, -7.421875) "></path>
                        <circle id="Oval" stroke="#FFFFFF" stroke-width="2" cx="7.421875" cy="7.421875" r="6.421875"></circle>
                    </g>
                </g>
            </g>
        </g>
    </g>
</svg>