<?xml version="1.0" encoding="UTF-8"?>
<svg width="100px" height="100px" viewBox="0 0 100 100" version="1.1" xmlns="http://www.w3.org/2000/svg" xmlns:xlink="http://www.w3.org/1999/xlink">
    <!-- Generator: Sketch 64 (93537) - https://sketch.com -->
    <title>icon-warranty</title>
    <desc>Created with Sketch.</desc>
    <g id="Desktop" stroke="none" stroke-width="1" fill="none" fill-rule="evenodd">
        <g id="Services_paversVsConcrete_desktop" transform="translate(-434.000000, -1504.000000)">
            <g id="icon-warranty" transform="translate(434.000000, 1504.000000)">
                <rect id="Rectangle-Copy-3" fill="#07A39D" x="0" y="0" width="100" height="100" rx="3"></rect>
                <g id="warranty" transform="translate(25.000000, 25.000000)" fill="#FFFFFF" fill-rule="nonzero" stroke="#07A39D" stroke-width="1.3">
                    <path d="M47.3216797,16.9364258 C46.6619141,14.893457 46.9431641,11.8267578 45.2283203,9.45888672 C43.5,7.07236328 40.494043,6.39404297 38.7966797,5.15263672 C37.1171875,3.92431641 35.5546875,1.25136719 32.7295898,0.329492188 C29.9841797,-0.56640625 27.1767578,0.649316406 25,0.649316406 C22.8235352,0.649316406 20.0163086,-0.566699219 17.2704102,0.329394531 C14.4458008,1.25107422 12.8820312,3.92460938 11.2036133,5.15234375 C9.50810547,6.39228516 6.49990234,7.07246094 4.771875,9.45859375 C3.05849609,11.8245117 3.33691406,14.8982422 2.67832031,16.9363281 C2.0515625,18.8760742 0,21.2041016 0,24.2189453 C0,27.2356445 2.04921875,29.5546875 2.67832031,31.5014648 C3.33808594,33.5444336 3.05683594,36.6111328 4.77167969,38.9790039 C6.49990234,41.365625 9.50576172,42.0438477 11.2033203,43.2853516 C12.8825195,44.5134766 14.4453125,47.1866211 17.2704102,48.1083984 C20.0139648,49.0037109 22.8257812,47.7885742 25,47.7885742 C27.1711914,47.7885742 29.9895508,49.0024414 32.7295898,48.1084961 C35.5542969,47.1868164 37.1170898,44.5138672 38.7963867,43.2855469 C40.4918945,42.0456055 43.5000977,41.3654297 45.228125,38.9792969 C46.9416016,36.6132813 46.6629883,33.5398438 47.3216797,31.5015625 C47.9484375,29.5617188 50,27.2336914 50,24.2189453 C50,21.2024414 47.9512695,18.884082 47.3216797,16.9364258 Z M43.6047852,30.3003906 C42.8357422,32.6807617 43.037207,35.3447266 42.0645508,36.6878906 C41.0788086,38.0489258 38.4890625,38.6706055 36.4907227,40.1323242 C34.5142578,41.5777344 33.1290039,43.869043 31.5178711,44.3947266 C29.9936523,44.8921875 27.509668,43.8821289 25.0000977,43.8821289 C22.472168,43.8821289 20.0137695,44.8943359 18.4822266,44.3947266 C16.8712891,43.869043 15.4879883,41.5792969 13.509375,40.1322266 C11.5228516,38.6793945 8.91835938,38.0449219 7.93544922,36.6876953 C6.96591797,35.3490234 7.15976563,32.6666016 6.39541016,30.3004883 C5.64619141,27.9822266 3.90625,25.9749023 3.90625,24.2189453 C3.90625,22.4612305 5.64462891,20.4608398 6.39521484,18.1375 C7.16425781,15.7572266 6.96279297,13.0930664 7.93544922,11.75 C8.92060547,10.3898438 11.5123047,9.76611328 13.509375,8.30556641 C15.4920898,6.85546875 16.8686523,4.56962891 18.4820312,4.04316406 C20.0049805,3.54628906 22.4970703,4.55576172 24.9999023,4.55576172 C27.5324219,4.55576172 29.984668,3.54287109 31.5177734,4.04316406 C33.1285156,4.56875 34.5129883,6.859375 36.4907227,8.30566406 C38.4769531,9.75849609 41.0816406,10.3929688 42.0645508,11.7500977 C43.0342773,13.0890625 42.8393555,15.76875 43.6045898,18.1373047 L43.6045898,18.1374023 C44.3538086,20.4556641 46.09375,22.4629883 46.09375,24.2189453 C46.09375,25.9766602 44.3553711,27.9770508 43.6047852,30.3003906 Z M33.9983398,17.9499023 C34.7611328,18.7126953 34.7611328,19.9493164 33.9983398,20.7120117 L24.2223633,30.4879883 C23.4595703,31.2507813 22.2228516,31.2506836 21.4601563,30.4879883 L16.0017578,25.0295898 C15.2389648,24.2667969 15.2388672,23.0301758 16.0016602,22.2674805 C16.7644531,21.5047852 18.0012695,21.5046875 18.7637695,22.2674805 L22.8412109,26.3448242 L31.2360352,17.95 C31.9988281,17.187207 33.2355469,17.187207 33.9983398,17.9499023 L33.9983398,17.9499023 Z" id="Shape"></path>
                </g>
            </g>
        </g>
    </g>
</svg>