<?xml version="1.0" encoding="UTF-8"?>
<svg width="100px" height="100px" viewBox="0 0 100 100" version="1.1" xmlns="http://www.w3.org/2000/svg" xmlns:xlink="http://www.w3.org/1999/xlink">
    <!-- Generator: Sketch 64 (93537) - https://sketch.com -->
    <title>icon-designs</title>
    <desc>Created with Sketch.</desc>
    <g id="Desktop" stroke="none" stroke-width="1" fill="none" fill-rule="evenodd">
        <g id="Services_paversVsConcrete_desktop" transform="translate(-434.000000, -1017.000000)">
            <g id="icon-designs" transform="translate(434.000000, 1017.000000)">
                <rect id="Rectangle-Copy" fill="#07A39D" x="0" y="0" width="100" height="100" rx="3"></rect>
                <g id="pattern" transform="translate(25.000000, 25.000000)" fill="#FFFFFF" fill-rule="nonzero" stroke="#07A39D" stroke-width="1.2">
                    <path d="M6.93359375,32.4752808 L6.93359375,41.6015625 C6.93359375,42.4106598 7.58934023,43.0664062 8.3984375,43.0664062 L17.5247192,43.0664062 L23.9589691,49.5658875 C24.2340088,49.8435975 24.6089936,50 25,50 C25.3910064,50 25.7659912,49.8435975 26.0410309,49.5658875 L32.4752808,43.0664062 L41.6015625,43.0664062 C42.4106598,43.0664062 43.0664062,42.4106598 43.0664062,41.6015625 L43.0664062,32.4752808 L49.5658875,26.0410309 C49.8435975,25.7659912 50,25.3910064 50,25 C50,24.6089936 49.8435975,24.2340088 49.5658875,23.9589691 L43.0664062,17.5247192 L43.0664062,8.3984375 C43.0664062,7.58934023 42.4106598,6.93359375 41.6015625,6.93359375 L32.4752808,6.93359375 L26.0410309,0.4341125 C25.7659912,0.156402539 25.3910064,8.67361738e-17 25,8.67361738e-17 C24.6089936,8.67361738e-17 24.2340088,0.156402539 23.9589691,0.4341125 L17.5247192,6.93359375 L8.3984375,6.93359375 C7.58934023,6.93359375 6.93359375,7.58934023 6.93359375,8.3984375 L6.93359375,17.5247192 L0.4341125,23.9589691 C0.156402539,24.2340088 8.67361738e-17,24.6089936 8.67361738e-17,25 C8.67361738e-17,25.3910064 0.156402539,25.7659912 0.4341125,26.0410309 L6.93359375,32.4752808 Z M9.86328125,40.1367188 L9.86328125,35.3755951 L10.1737977,35.6830597 C10.968399,36.4776611 11.9941711,36.9037628 13.0363465,36.9613647 C13.0950928,38.0439758 13.5440826,39.0533447 14.3119813,39.8208618 L14.6244049,40.1367188 L9.86328125,40.1367188 Z M16.3936615,12.2402191 L18.7469482,9.86328125 L22.0703125,9.86328125 C22.8778839,9.86328125 23.5351562,10.5331421 23.5351562,11.3567353 L23.5351562,15.6040191 L21.4633941,17.6757812 L19.7475434,17.6757812 L16.3887023,14.3169403 C15.8176422,13.7458801 15.8176422,12.8166199 16.3936615,12.2402191 Z M33.6112977,12.2455597 C34.1827393,12.8166199 34.1827393,13.7458801 33.6112977,14.3169403 L30.2524566,17.6757812 L28.5366059,17.6757812 L26.4648438,15.6040191 L26.4648438,11.3567353 C26.4648438,10.5331421 27.1221161,9.86328125 27.9296875,9.86328125 L31.2530518,9.86328125 L33.6112977,12.2455597 Z M33.6063385,37.7597809 L31.2530518,40.1367187 L27.9296875,40.1367187 C27.1221161,40.1367187 26.4648438,39.4668579 26.4648438,38.6432647 L26.4648438,34.3959809 L28.5366059,32.3242188 L30.2524566,32.3242188 L33.6112977,35.6830597 C33.8882446,35.9596252 34.0404511,36.3273621 34.0404511,36.71875 C34.0404511,37.1101379 33.8882446,37.4778748 33.6063385,37.7597809 L33.6063385,37.7597809 Z M16.3887023,37.7544403 C16.1117554,37.4778748 15.9595489,37.1101379 15.9595489,36.71875 C15.9595489,36.3273621 16.1117554,35.9596252 16.3887023,35.6830597 L19.7475434,32.3242188 L21.4633941,32.3242188 L23.5351562,34.3959809 L23.5351562,38.6428833 C23.5351562,39.4664765 22.8778839,40.1367187 22.0703125,40.1367187 L18.7469482,40.1367187 L16.3887023,37.7544403 Z M25,18.2826996 L26.8939972,20.1763153 C27.1686554,20.451355 27.5409698,20.6054688 27.9296875,20.6054688 L29.3945313,20.6054688 L29.3945313,22.0703125 C29.3945313,22.4586486 29.548645,22.8313446 29.8236847,23.1060028 L31.7173004,25 L29.8236847,26.8939972 C29.548645,27.1686554 29.3945313,27.5413514 29.3945313,27.9296875 L29.3945313,29.3945312 L27.9296875,29.3945312 C27.5409698,29.3945312 27.1686554,29.548645 26.8939972,29.8236847 L25,31.7173004 L23.1060028,29.8236847 C22.8313446,29.548645 22.4590302,29.3945312 22.0703125,29.3945312 L20.6054688,29.3945312 L20.6054688,27.9296875 C20.6054688,27.5413514 20.451355,27.1686554 20.1763153,26.8939972 L18.2826996,25 L20.1763153,23.1060028 C20.451355,22.8313446 20.6054688,22.4586486 20.6054688,22.0703125 L20.6054688,20.6054687 L22.0703125,20.6054687 C22.4590302,20.6054687 22.8313446,20.451355 23.1060028,20.1763153 L25,18.2826996 Z M32.3242188,30.2524566 L32.3242188,28.5366059 L34.3959809,26.4648438 L38.6432647,26.4648438 C39.4668579,26.4648438 40.1367187,27.1221161 40.1367187,27.9296875 L40.1367187,31.2530518 L37.7544403,33.6112977 C37.1833801,34.1823578 36.2541199,34.1823578 35.6830597,33.6112977 L32.3242188,30.2524566 Z M40.1367187,22.0703125 C40.1367187,22.8778839 39.4668579,23.5351562 38.6432647,23.5351562 L34.3959809,23.5351562 L32.3242188,21.4633941 L32.3242188,19.7475434 L35.6830597,16.3887023 C36.2541199,15.8176422 37.1833801,15.8176422 37.7597809,16.3936615 L40.1367187,18.7469482 L40.1367187,22.0703125 Z M17.6757812,19.7475434 L17.6757812,21.4633941 L15.6040191,23.5351563 L11.3567353,23.5351563 C10.5331421,23.5351563 9.86328125,22.8778839 9.86328125,22.0703125 L9.86328125,18.7469482 L12.2455597,16.3887023 C12.8166199,15.8176422 13.7458801,15.8176422 14.3169403,16.3887023 L17.6757812,19.7475434 Z M9.86328125,27.9296875 C9.86328125,27.1221161 10.5331421,26.4648438 11.3567353,26.4648438 L15.6040191,26.4648438 L17.6757812,28.5366059 L17.6757812,30.2524566 L14.3169403,33.6112977 C13.7458801,34.1823578 12.8166199,34.1823578 12.2402191,33.6063385 L9.86328125,31.2530518 L9.86328125,27.9296875 Z M25,46.4530945 L21.6472626,43.0664062 L22.0703125,43.0664062 C23.1948853,43.0664062 24.2218018,42.6383973 25,41.936493 C25.7781982,42.6383973 26.8051147,43.0664062 27.9296875,43.0664062 L28.3527374,43.0664062 L25,46.4530945 Z M40.1367188,40.1367187 L35.3755951,40.1367187 L35.6830597,39.8262023 C36.4555359,39.0537262 36.9049072,38.0443573 36.9636535,36.9621277 C38.0046845,36.9049072 39.0289307,36.47995 39.8208618,35.6880187 L40.1367188,35.3755951 L40.1367188,40.1367187 Z M46.4530945,25 L43.0664062,28.3527374 L43.0664062,27.9296875 C43.0664062,26.8051147 42.6383973,25.7781982 41.936493,25 C42.6383973,24.2218018 43.0664062,23.1948853 43.0664062,22.0703125 L43.0664062,21.6472626 L46.4530945,25 Z M40.1367187,9.86328125 L40.1367187,14.6244049 L39.8262023,14.3169403 C39.0541076,13.5448456 38.0451202,13.0954742 36.9636535,13.0363465 C36.9045258,11.9544982 36.4555359,10.9462738 35.6880187,10.1791382 L35.3755951,9.86328125 L40.1367187,9.86328125 Z M25,3.54690547 L28.3527374,6.93359375 L27.9296875,6.93359375 C26.8051147,6.93359375 25.7781982,7.36083984 25,8.06274414 C24.2218018,7.36083984 23.1948853,6.93359375 22.0703125,6.93359375 L21.6472626,6.93359375 L25,3.54690547 Z M9.86328125,9.86328125 L14.6244049,9.86328125 L14.3169403,10.1737977 C13.5448456,10.9458924 13.0954742,11.9544982 13.0367279,13.0363465 C11.9548798,13.0954742 10.9462738,13.5444641 10.1791382,14.3119813 L9.86328125,14.6244049 L9.86328125,9.86328125 Z M6.93359375,21.6472626 L6.93359375,22.0703125 C6.93359375,23.1948853 7.36160273,24.2218018 8.06350703,25 C7.36160273,25.7781982 6.93359375,26.8051147 6.93359375,27.9296875 L6.93359375,28.3527374 L3.54690547,25 L6.93359375,21.6472626 Z" id="Shape"></path>
                </g>
            </g>
        </g>
    </g>
</svg>